<?xml version="1.0" standalone="no"?>
<!DOCTYPE svg PUBLIC "-//W3C//DTD SVG 1.1//EN" "http://www.w3.org/Graphics/SVG/1.1/DTD/svg11.dtd" >
<svg xmlns="http://www.w3.org/2000/svg">
<metadata></metadata>
<defs>
<font id="misterk_regular" horiz-adv-x="819" >
<font-face units-per-em="2048" ascent="1638" descent="-410" />
<missing-glyph horiz-adv-x="587" />
<glyph horiz-adv-x="2048" />
<glyph horiz-adv-x="2048" />
<glyph unicode="&#xd;" horiz-adv-x="587" />
<glyph unicode=" "  horiz-adv-x="587" />
<glyph unicode="&#x09;" horiz-adv-x="587" />
<glyph unicode="&#xa0;" horiz-adv-x="587" />
<glyph unicode="!" horiz-adv-x="671" d="M249 1005q0 23 3.5 39.5t12.5 16.5q19 0 31 -16t19.5 -41t10.5 -55t5 -59q4 -53 10.5 -126t12.5 -151t11 -154.5t5 -136.5q-1 -13 -3.5 -17.5t-18.5 -4.5q-11 0 -20 27.5t-16 75t-13 109t-12.5 131.5t-14.5 142.5t-17 140.5q-1 5 -3.5 29t-2.5 50zM356 -2q0 29 17.5 40.5 t35.5 11.5q11 0 18.5 -8t12 -19.5t6 -22t1.5 -16.5q0 -12 -6 -23t-28 -11q-6 0 -16 2t-19 7.5t-15.5 15t-6.5 23.5z" />
<glyph unicode="&#x22;" horiz-adv-x="688" d="M170 870q0 28 20.5 39t47.5 11q29 0 50 -14t35 -37t20.5 -52.5t6.5 -58.5q0 -14 -5.5 -39t-17.5 -49t-29 -42t-40 -18q-10 0 -10 4q0 6 7 23t15.5 39.5t15.5 48.5t7 49q0 35 -19.5 50t-42.5 21t-42 9.5t-19 15.5zM313 936q0 24 16 28.5t38 4.5q33 0 60 -13t46 -34.5 t29 -50t10 -60.5q0 -20 -5 -48.5t-16 -54t-28.5 -43.5t-40.5 -18q-6 0 -11 2.5t-5 7.5v5q7 13 15.5 30.5t16 37t12.5 38.5t5 37q0 27 -12.5 48t-36.5 36q-10 5 -25.5 10t-30.5 10t-26 12t-11 15z" />
<glyph unicode="$" horiz-adv-x="567" d="M82 453q0 20 13.5 40.5t36 38.5t52.5 32.5t65 23.5q0 15 1 30.5t1.5 27.5t2 20.5t3.5 8.5q22 0 29 -13t8 -33v-16t-1 -16q9 1 18.5 1h17.5q16 0 35.5 -1.5t36.5 -4.5t27.5 -8.5t10.5 -13.5q0 -5 -6 -10.5t-14.5 -10t-17.5 -8t-13 -3.5q-12 0 -29 1t-34 1q-14 0 -28 -3 q0 -29 -0.5 -43.5t-1 -23t-0.5 -16v-21.5q0 -16 1.5 -46t2.5 -86l11 -10q28 -20 56.5 -41.5t51.5 -43.5t37.5 -45t14.5 -47q0 -35 -17 -60.5t-42 -44.5t-54 -32.5t-53 -22.5q0 -14 1 -30.5t1 -31.5q0 -22 -3.5 -33t-9 -16.5t-12.5 -6.5t-12 -1q-7 0 -9 20t-2 78v8 q-52 -14 -89.5 -23.5t-48.5 -9.5q-9 0 -16.5 1.5t-7.5 5.5q0 12 11 20.5t31.5 16t50.5 15.5t69 22q0 17 -0.5 39.5t-1 54t-2 73t-2.5 97.5v19q-31 22 -61.5 43.5t-54.5 44t-39 45.5t-15 48zM144 443q0 -20 12 -36t29 -28.5t35.5 -23.5t32.5 -21v61q0 32 -0.5 66t-2.5 69 q-16 -2 -33.5 -8.5t-32 -16.5t-25 -22.5t-13.5 -24.5q-2 -10 -2 -15zM300 8l6 4l32.5 19.5t32.5 23t25 27.5t11 32q0 28 -29 59.5t-78 67.5v-233z" />
<glyph unicode="&#x26;" horiz-adv-x="1180" d="M218 116q0 28 10 59t33 67t62 77.5t99 92.5q-43 66 -43 131q0 74 28 134.5t73.5 104.5t103.5 68t118 24q25 0 47.5 -8t39 -23t26 -35t9.5 -44q0 -32 -25.5 -70.5t-70 -84.5t-104.5 -98.5t-127 -114.5q4 -10 20.5 -32t39 -50.5t49 -60.5t51 -61t43.5 -52.5t27 -36.5 q1 -2 1 -5q0 -6 -5.5 -7.5t-10.5 -1.5q-24 0 -56 28t-66 68t-66 83.5t-54 74.5l-17 26q-80 -63 -126 -125t-46 -117q0 -24 10.5 -45.5t35 -37.5t63.5 -26.5t96 -10.5q62 0 126.5 14t116.5 37t85 53t33 63q-36 11 -51.5 27.5t-17.5 30.5q0 20 15.5 35t39.5 15 q23 0 43.5 -16.5t29.5 -59.5q12 -10 35.5 -14t49 -5t50.5 -2t41 -6q-3 -24 -23 -30t-45 -6q-20 0 -45.5 1.5t-67.5 13.5q-10 -46 -50.5 -84t-99 -65t-127 -42t-134.5 -15q-56 0 -105.5 10.5t-86.5 31.5t-58.5 51.5t-21.5 70.5zM432 560q0 -51 41 -111q71 67 123 111.5t86 78 t50.5 60t16.5 56.5q0 24 -10 35t-44 11q-45 0 -92 -18.5t-85 -51.5t-62 -77t-24 -94z" />
<glyph unicode="'" horiz-adv-x="358" d="M63 864q0 24 20 33.5t54 9.5q32 0 57 -13t43 -36t27.5 -53.5t9.5 -65.5q0 -16 -9 -37.5t-23 -41t-30.5 -33t-33.5 -13.5q-1 0 -5 0.5t-8.5 3.5t-8.5 8t-4 15q13 7 24.5 20t19.5 29t12.5 33t4.5 35q0 27 -13.5 48.5t-43.5 27.5q-11 2 -27 4t-30.5 5t-25 8t-10.5 13z" />
<glyph unicode="(" horiz-adv-x="432" d="M128 401q0 93 12 176t34 154t52.5 126.5t68.5 93.5q3 3 9 9.5t13.5 12t14.5 9.5t13 4t8 -5t2 -19q0 -17 -12.5 -38.5t-31 -50t-41 -66.5t-41 -88.5t-31.5 -117t-13 -151.5q0 -123 16.5 -231t41.5 -199.5t54 -164.5t54 -127.5t41.5 -89t16.5 -47.5q0 -4 -4.5 -6t-8.5 -2 t-11 3.5t-18 20.5q-61 96 -106.5 197t-74.5 201.5t-43.5 200.5t-14.5 195z" />
<glyph unicode=")" horiz-adv-x="423" d="M60 1030q0 13 9 13q7 0 16.5 -8t14.5 -17q58 -90 99.5 -197.5t67.5 -220t37.5 -223t11.5 -205.5q0 -90 -12 -174t-32 -156t-45.5 -128.5t-53.5 -90.5q-2 -3 -6.5 -9t-10.5 -11.5t-13 -10.5t-13 -5t-8 5.5t-2 19.5q0 17 10.5 38t26 50t34.5 66.5t34.5 88.5t26 117.5 t10.5 151.5q0 122 -15 232t-37.5 205.5t-48.5 174.5t-48.5 139.5t-37.5 99.5t-15 55z" />
<glyph unicode="+" horiz-adv-x="724" d="M84 183q0 23 16 32.5t45.5 13.5t72 5.5t96.5 6.5l-9 117t-9 79q-2 7 -3 12t-1 8q0 13 7 18.5t18 5.5q15 0 28.5 -9t15.5 -26q2 -16 3 -38.5t3 -49.5q1 -24 3 -51.5t4 -62.5q34 2 68.5 3.5t72.5 1.5q55 0 89 -4.5t34 -10.5q0 -24 -14.5 -29t-30.5 -5q-81 -5 -124.5 -8.5 t-63.5 -5t-23 -2.5l-3 -1q1 -11 1 -25.5v-31.5q0 -26 -1 -53t-2.5 -50t-5 -38t-7.5 -15q-20 1 -28 10.5t-8 23.5v23q-2 36 -4.5 75.5t-6.5 78.5q-40 -3 -75.5 -6.5t-63 -6.5t-45.5 -5.5t-23 -2.5q-14 0 -20 6.5t-6 16.5z" />
<glyph unicode="," horiz-adv-x="470" d="M159 -263q0 11 5 22.5t7 17.5q36 109 51.5 185.5t15.5 115.5q0 20 10 28.5t23 8.5q14 0 27 -8t13 -20q0 -43 -10 -82.5t-15 -59.5q-4 -14 -11.5 -37.5t-16 -49.5t-19 -52.5t-20 -48t-18 -35.5t-15.5 -14q-5 0 -16 8t-11 21z" />
<glyph unicode="-" d="M161 183q0 13 6.5 24t30.5 16q42 8 79 13.5t77 8t86.5 3.5t108.5 1q28 0 52.5 -1t43 -3t29.5 -4.5t11 -6.5q0 -19 -20.5 -26.5t-53.5 -7.5q-60 -4 -120.5 -9t-114 -9.5t-97 -9t-70.5 -8.5q-12 -4 -23 -4q-14 0 -19.5 6.5t-5.5 16.5z" />
<glyph unicode="." horiz-adv-x="530" d="M212 26q0 14 6.5 24t16.5 16.5t20.5 9t19.5 2.5q11 0 18.5 -8.5t12 -19t6.5 -22t2 -17.5q0 -12 -6 -23.5t-28 -11.5q-4 0 -15.5 3t-23 8.5t-20.5 15t-9 23.5z" />
<glyph unicode="/" horiz-adv-x="308" d="M0 -281q0 9 3 25.5t9 46.5q6 28 14 63.5t20 91t29.5 135.5t43.5 194q7 32 17.5 76.5t23 97t25.5 109t25 114.5q2 9 6.5 29t10 44t12 49t12.5 45.5t10.5 34t6.5 13.5q17 0 24 -18.5t7 -38.5q0 -7 -0.5 -12.5t-1.5 -10.5q-9 -38 -30.5 -127.5t-51 -219t-65.5 -292 t-74 -345.5q-5 -25 -10.5 -47.5t-11.5 -40.5t-12.5 -28.5t-15.5 -10.5q-26 0 -26 23z" />
<glyph unicode="0" horiz-adv-x="503" d="M34 404q0 24 5.5 43.5t22.5 19.5q7 0 12.5 -2.5t5.5 -13.5q0 -19 1.5 -46t6.5 -57v27q0 49 15 94t40.5 79.5t61 55t76.5 20.5q45 0 78 -29t55 -75t33 -104t11 -117q0 -71 -12.5 -130t-36.5 -101.5t-59 -67t-80 -24.5q-43 0 -77.5 24t-61 61t-44.5 85t-30 95.5t-17.5 90.5 t-5.5 72zM123 197q11 -34 26 -64t33.5 -52t40 -35t47.5 -13q34 0 58 22t40 57.5t23.5 81.5t7.5 92q0 58 -8.5 108t-24.5 86t-38 56.5t-48 20.5q-30 0 -55 -17t-43 -45t-28.5 -64t-10.5 -74q0 -26 1 -42.5t2.5 -30t3.5 -25.5t2 -28q0 -17 -6 -27t-14 -10q-5 0 -9 3z" />
<glyph unicode="1" horiz-adv-x="539" d="M83 285q0 7 10.5 20t29 35t44.5 54.5t56 77.5q10 15 19.5 35t17.5 37.5t15.5 29.5t13.5 12t13 -1.5t13.5 -9t11 -22.5t4.5 -43q0 -55 -1 -99.5t-1 -83.5q0 -67 1.5 -116t3.5 -89.5t4 -77t3 -77.5q0 -13 -4.5 -17t-11.5 -4q-12 0 -22 3q-22 6 -27 53.5t-5 120.5 q0 79 6 157.5t6 162.5q0 24 -5 24q-2 0 -6 -7q-20 -47 -43.5 -84t-45.5 -62.5t-41 -39t-31 -13.5q-13 0 -20.5 6.5t-7.5 17.5z" />
<glyph unicode="2" horiz-adv-x="568" d="M52 428q0 18 23 38.5t56.5 38t72 29.5t68.5 12q19 0 39 -5.5t35 -15.5t25 -24t10 -30q0 -28 -14 -61t-34 -69t-44 -73.5t-44 -73t-33.5 -69t-13.5 -60.5t12 -36.5t43 -9.5q40 0 73.5 6.5t67.5 13t69 12.5t76 6q8 0 10.5 -4t2.5 -9t-1 -8t-1 -5q0 -14 -30 -26t-76 -21.5 t-101.5 -14.5t-108.5 -5q-49 0 -73 28.5t-24 74.5q0 41 25 91t55.5 101.5t55.5 101.5t25 90q0 24 -25 23q-18 0 -44.5 -10.5t-51.5 -24t-43 -24.5t-19 -11q-26 0 -44.5 8.5t-18.5 15.5z" />
<glyph unicode="3" horiz-adv-x="534" d="M49 521q0 10 11 17t28.5 11t39.5 6t43 2q52 0 87 -7t56 -19t29.5 -28t8.5 -33q0 -27 -22.5 -57.5t-50 -58t-50 -49t-22.5 -29.5q0 -1 18 -2t44.5 -4t58 -9.5t58.5 -18.5t45 -31.5t18 -47.5q0 -38 -19 -76t-49 -71t-65 -62.5t-67.5 -50.5t-57 -33t-32.5 -13q-18 0 -19 11 q0 11 17.5 27.5t43.5 36.5t56.5 44t56.5 51t43.5 56.5t17.5 60.5q0 28 -18.5 43.5t-44.5 23.5t-56 10t-52 2q-15 0 -31 0.5t-29 4.5t-20.5 12t-7.5 22q0 12 23 35.5t52 51.5t55.5 58t33.5 58q0 5 -8 8.5t-20.5 5.5t-29.5 3t-35 1q-35 0 -65.5 -2t-37.5 -2q-10 2 -17 7 t-12.5 13t-5.5 22z" />
<glyph unicode="4" horiz-adv-x="567" d="M112 98q0 26 3.5 74t9 105.5t13 117.5t17 108.5t19 79.5t20.5 31q2 0 8 0.5t11 0.5q8 0 15.5 -3.5t7.5 -17.5q0 -1 -3.5 -14t-7.5 -30.5t-8 -35.5t-6 -31q-2 -11 -8.5 -53t-15 -95t-14.5 -106.5t-6 -86.5q0 -39 27 -39q7 0 32.5 9t56.5 19.5l62 21t49 14.5 q0 36 -3.5 67.5t-7.5 60t-7.5 55.5t-3.5 53q0 8 2 19.5t14 11.5q8 0 15.5 -3.5t9.5 -11.5q5 -18 10 -49t9 -65.5t7 -67t5 -53.5l3 -36q0 -9 1.5 -18t3 -32t2.5 -67t1 -123q0 -18 -8 -26t-20 -8q-14 0 -22 18.5t-8 60.5q0 18 2.5 41.5t2.5 55.5t-2.5 45t-12.5 13 q-12 0 -30 -6.5t-38 -15.5t-41 -19t-39 -17q-28 -11 -41.5 -14.5t-23.5 -3.5q-25 0 -43.5 15t-18.5 51z" />
<glyph unicode="5" horiz-adv-x="525" d="M53 334q0 39 13.5 68.5t32 53t37 41.5t27.5 32q4 7 7 18.5t7.5 23t13 19.5t23.5 8q4 0 13 -4.5t12 -12.5q5 -11 8.5 -17.5t8.5 -11t13.5 -8.5t22.5 -10q20 -9 50.5 -16.5t59 -15.5t48.5 -19t20 -27q0 -12 -3.5 -17.5t-19.5 -5.5q-43 0 -87.5 4t-88.5 18q-23 6 -39.5 13.5 t-34.5 13.5q-8 -1 -22.5 -13.5t-29 -33.5t-25 -48.5t-10.5 -55.5q0 -31 23 -51.5t57 -36.5t74 -29.5t74.5 -30.5t57.5 -39.5t23 -56.5t-17.5 -66.5t-45 -58t-62.5 -41.5t-70 -16q-11 0 -20 4t-9 16q0 7 6 12q3 2 6 3q24 3 51 13.5t50 28.5t38 42.5t15 56.5q0 25 -23 41.5 t-56.5 31t-74 29t-74.5 34t-57 47.5t-23 70z" />
<glyph unicode="6" horiz-adv-x="627" d="M95 152q0 44 13 95.5t35.5 103.5t52.5 101t64.5 87.5t72 62.5t74.5 26q5 -1 11 -4.5t6 -11.5q0 -7 -6.5 -15.5t-26.5 -19.5q0 -1 -8.5 -6.5t-23.5 -17t-35.5 -31t-44.5 -48.5q-16 -19 -39 -51.5t-44 -74t-35.5 -90.5t-14.5 -101q0 -12 3.5 -27.5t8.5 -30t11.5 -25.5 t12.5 -14q12 46 38.5 87t60.5 72.5t75 49.5t83 18q13 0 30.5 -2.5t33.5 -13t27 -31t11 -55.5q0 -30 -15.5 -67t-48.5 -69.5t-85.5 -54.5t-126.5 -22q-15 0 -43.5 7.5t-56.5 27t-49 54t-21 91.5zM234 37q0 -3 2 -5.5t7.5 -4.5t16 -3t28.5 -1q34 0 66.5 10t57.5 30t41 48.5 t16 65.5q0 22 -12 30.5t-29 8.5q-29 0 -62.5 -13.5t-63 -37.5t-49 -56.5t-19.5 -71.5z" />
<glyph unicode="7" horiz-adv-x="561" d="M79 557q0 17 13 25q36 -6 71.5 -10t55.5 -4q28 0 58.5 8t73.5 22q30 -1 36 -9t6 -32q0 -2 -4 -22t-11.5 -50.5t-18 -68.5t-22.5 -78q-5 -18 -5 -30q0 -6 5 -7.5t15 -1.5q53 0 86.5 -5t53 -13t26.5 -17t7 -16q0 -8 -4 -21t-15 -13q-24 8 -58.5 18t-89.5 10 q-18 0 -27.5 -1.5t-15.5 -5.5t-8.5 -10.5t-5.5 -16.5q-9 -30 -16 -59.5t-13 -55.5t-10 -46t-6 -31l-14 -70q-5 -24 -9.5 -44.5t-11 -36t-16.5 -24t-25 -8.5q-10 0 -10 14q10 51 19.5 95.5t19.5 87.5t22.5 88.5t28.5 100.5q0 2 1 5t1 6t-3 6q-14 -3 -32 -7q-14 -2 -33.5 -4 t-41.5 -2q-26 0 -26 14q0 15 22.5 24t50 14.5t52 9.5t28.5 9q4 8 20 66t39 162q0 5 -3 5q-14 0 -29.5 -5t-34 -11.5t-39.5 -11.5t-47 -5q-15 0 -33.5 1t-35 7t-27 19t-10.5 36z" />
<glyph unicode="8" horiz-adv-x="567" d="M102 94q0 25 9.5 50t23 49t30.5 47t33 42.5t28.5 36t17.5 27.5q0 8 -19 19.5t-41.5 28.5t-41.5 42.5t-19 63.5q0 13 4 31t13.5 37.5t23.5 38t35 32.5q1 4 4.5 8t11 7t21.5 5.5t38 2.5q32 0 52 -14t31.5 -33t15.5 -40t4 -34q0 -28 -15.5 -66t-46.5 -92q0 -5 22.5 -19 t50.5 -38.5t50.5 -63t22.5 -92.5q0 -39 -17.5 -69.5t-47 -52t-70 -33t-86.5 -11.5q-25 0 -49.5 4.5t-44 15.5t-32 28t-12.5 42zM162 121q0 -27 23.5 -45.5t68.5 -18.5q30 0 58 8.5t49.5 24.5t35 41.5t13.5 58.5q0 29 -15.5 53t-36.5 42.5t-42 30.5t-31 14l-15 -19 q-18 -26 -37.5 -53.5t-35 -53.5t-25.5 -48t-10 -35zM170 518q0 -19 10 -39t25.5 -36.5t32 -26.5t28.5 -10q4 0 12.5 13t17 32.5t15 42t6.5 41.5q0 12 -2.5 25.5t-8 25t-15.5 19t-23 7.5h-12t-12 -2l-11 -6q-22 -14 -42.5 -34.5t-20.5 -51.5z" />
<glyph unicode="9" horiz-adv-x="525" d="M51 361q0 39 20.5 72t54 56t74.5 36t82 13q29 0 57 -5.5t37 -13.5q12 -2 28.5 -12t21.5 -37q1 -7 4 -20.5t6 -30.5t5.5 -36t2.5 -38q0 -53 -13 -110t-36 -112t-53 -107t-61.5 -95t-64.5 -75t-60 -48q-18 3 -19 18q0 9 10 20t27 34q4 6 22 26t42 52t50.5 73.5t49.5 92 t38 107.5t16 118q0 17 -1 34t-4 35q-14 -40 -37 -69t-52 -48.5t-60 -28.5t-61 -9q-52 0 -89 27t-37 81zM112 379q0 -32 20 -46.5t45 -14.5t52 11t52 30.5t45 46.5t28 59q0 2 -2 6t-9.5 8.5t-21.5 7.5t-37 3q-25 0 -54.5 -8t-56 -23t-44 -35.5t-17.5 -44.5z" />
<glyph unicode=":" horiz-adv-x="599" d="M207 296q0 22 10.5 38t35.5 16q5 0 7 -1q1 -1 7 -2t13 -4t12 -8.5t5 -16.5q0 -5 -4 -16t-12 -23.5t-19 -21.5t-26 -9q-5 0 -6 1q-13 6 -18 19.5t-5 27.5zM285 -28q0 20 12.5 38t33.5 18q4 0 11.5 -1.5t15.5 -6t13.5 -11.5t5.5 -17q0 -2 -3 -10t-11 -16.5t-20 -15 t-31 -6.5q-6 0 -11.5 1t-7.5 4q-8 8 -8 23z" />
<glyph unicode="=" horiz-adv-x="670" d="M78 327q0 14 8.5 25.5t21.5 11.5q12 7 33 8t44 3q22 1 55.5 3.5t73.5 5.5t82.5 5t80.5 2q23 0 43.5 -1t35.5 -2.5t24 -3.5t9 -4q0 -14 -6 -22.5t-14.5 -12.5t-17.5 -5t-15 -1q-49 0 -108 -2.5t-117.5 -6t-109.5 -9t-84 -11.5q-5 -1 -12.5 -3.5t-12.5 -2.5q-6 0 -10 4.5 t-4 18.5zM80 177q0 6 27.5 13t70.5 13t95.5 11.5t102 9.5t90 6.5t59.5 2.5q9 0 20 0.5t19 0.5q11 0 20.5 -11t9.5 -22q0 -20 -27 -25.5t-82.5 -6.5t-139.5 -3.5t-198 -18.5q-8 0 -17.5 -2.5t-23.5 -2.5q-11 0 -18.5 6t-7.5 29z" />
<glyph unicode="?" horiz-adv-x="700" d="M173 764q0 6 14 13.5t38 14t55.5 10.5t67.5 4q19 0 41 -2.5t39 -9.5t29 -17.5t12 -25.5q0 -30 -13.5 -66.5t-33.5 -75.5t-43 -78t-43 -75.5t-33 -68t-13 -52.5q0 -20 10.5 -30t37.5 -10q4 0 21.5 2.5t40.5 7t47.5 12.5t42.5 18q16 7 24 7t10 -5t2 -7q0 -22 -20 -40.5 t-46.5 -31t-54 -20t-43.5 -7.5q-56 0 -87 27.5t-31 81.5q1 28 13.5 61.5t30.5 69t38.5 71.5t38 69.5t29.5 63.5t12 52q0 17 -13.5 23.5t-32.5 6.5q-18 0 -39 -3t-41 -7t-37.5 -7t-29.5 -3q-5 0 -12 1t-13.5 4t-10.5 8.5t-4 13.5zM371 14q0 29 11 40t39 11q17 0 24.5 -8.5 t7.5 -20.5t-5.5 -25t-14 -24t-20 -17.5t-23.5 -6.5q-14 0 -16.5 14.5t-2.5 36.5z" />
<glyph unicode="A" horiz-adv-x="995" d="M-151 -96q0 9 15.5 15t38 10t48.5 7t48 6q36 4 77 11t84.5 22t87.5 40.5t85.5 67.5t79 102.5t67.5 145.5q0 7 -4 13.5t-9 14t-9 16t-4 19.5q0 8 6.5 15.5t15 12.5t17.5 9.5t12 7.5q7 3 15.5 29t18 65t18 88t17.5 100l16 88q0 47 7 95.5t15 96.5q2 10 3 26t4 30t8.5 24.5 t16.5 10.5q10 -2 17.5 -14.5t11.5 -32.5t6.5 -45.5t4.5 -54.5q11 -141 24 -248t25.5 -189t26 -142.5t26.5 -109.5q13 -3 30 -5t32 -3t28.5 -1.5t20.5 -0.5q12 0 29 1t35.5 3.5t36.5 6t33 8.5q7 2 14.5 4t10.5 2q5 0 7 -4.5t2 -9.5q-2 -18 -24.5 -30t-52.5 -18.5t-60.5 -9.5 t-47.5 -3q-8 0 -21 0.5t-25.5 1t-21.5 0.5l-9 1q10 -39 19 -71.5t19 -59.5t20 -50.5t22 -46.5q1 -2 1 -7q0 -9 -8 -14t-19 -5q-12 0 -19 5q-6 3 -19 33t-28 70.5t-29 83t-24 72.5q-46 9 -83 23.5t-63 28t-41 24t-20 10.5q-43 -88 -87.5 -158t-103 -121t-139.5 -81t-198 -38 q-47 -3 -73.5 -7t-49.5 -4q-17 0 -24 7.5t-7 10.5zM566 384q0 -22 16 -39t39.5 -31.5t50.5 -24.5t51 -17q0 4 -1 7q-3 13 -7.5 41t-11 65.5t-13.5 80.5t-13 86t-12 82.5t-9 70.5q-1 2 -6 8.5t-7 6.5q-30 -110 -47 -199t-30 -137z" />
<glyph unicode="B" horiz-adv-x="905" d="M-112 957q0 18 25.5 35.5t57 30.5t60 22t37.5 10q34 6 60 9.5t55.5 5.5t68.5 3t97 1q55 0 111 -5.5t100 -28t71.5 -67.5t27.5 -123q0 -77 -16 -136t-35 -110t-35.5 -99t-16.5 -104q0 -62 6 -106.5t23 -85.5t48 -86t80 -107q44 -56 96 -118t97 -124.5t75.5 -121.5 t30.5 -109q0 -47 -32.5 -84t-79 -62t-98.5 -37.5t-93 -12.5q-16 0 -25.5 3.5t-9.5 19.5q0 24 5.5 29t29.5 5q49 0 91.5 14t74 35t50 45t18.5 44q0 33 -18 73.5t-47 85.5t-65 91.5t-71.5 92t-68 86.5t-53.5 75q-43 68 -68.5 110.5t-38.5 79t-16.5 76t-3.5 101.5 q0 53 15.5 103t34.5 101.5t35 106t16 118.5q0 42 -14.5 66t-36 36t-48 15.5t-51.5 3.5q-31 0 -69 -4t-74 -8.5t-64 -9.5t-37 -8q44 -134 72.5 -240.5t46.5 -194t27 -159.5t14.5 -136t8.5 -124.5t8 -123.5q0 -4 0.5 -8t0.5 -7q0 -8 -3.5 -13t-15.5 -5q-23 0 -39.5 24.5 t-16.5 72.5q0 68 -6.5 144t-18 152.5t-25.5 152.5t-29 144q-34 162 -78 321q0 -2 -20 -8t-49 -13t-61 -12t-58 -5q-9 0 -21.5 6t-23 15.5t-18 20.5t-7.5 20z" />
<glyph unicode="C" horiz-adv-x="699" d="M84 584q0 62 8.5 131.5t26 138.5t43.5 131.5t60 110t76.5 75.5t92.5 28q34 0 62.5 -21.5t52 -58.5t42 -87.5t31 -108.5t19 -121.5t6.5 -125.5q0 -80 -10.5 -155t-33.5 -132t-58.5 -91.5t-83.5 -34.5q-28 0 -49.5 19t-37 48.5t-26 66.5t-16.5 73.5t-8.5 67.5t-2.5 50 q0 12 0.5 25.5t3 24.5t7.5 19t13 8q7 0 14 -15t12.5 -37t8.5 -46t3 -43q0 -16 5 -48t15.5 -63.5t25.5 -55.5t35 -24q33 0 57 28.5t40.5 76t24 109.5t7.5 129q0 80 -11 159t-32.5 142.5t-53 103t-72.5 39.5q-39 0 -71 -26.5t-59 -70.5t-47 -102t-33 -119.5t-20 -123 t-7 -113.5q0 -62 11 -127.5t33 -127.5t56 -116.5t80.5 -95t105 -64t131.5 -23.5q16 0 32 1t34 5q34 7 52.5 15.5t20.5 8.5q11 0 18.5 -12t7.5 -17q0 -6 -24 -17t-59 -20q-25 -6 -51 -8.5t-39 -2.5q-116 0 -204 48.5t-147 133t-88.5 197.5t-29.5 241z" />
<glyph unicode="D" horiz-adv-x="993" d="M74 893q0 65 13.5 128.5t45.5 115t83 83.5t126 32q87 0 152.5 -39t113.5 -106t80 -155t51 -184t26.5 -195t7.5 -188q0 -59 -2.5 -113.5t-5.5 -100.5q16 -4 24.5 -6t17.5 -4.5t22 -6.5t41 -10q12 -2 28.5 -9t16.5 -16q0 -6 -5.5 -11.5t-12.5 -8.5t-12 -5l-5 -2 q-30 0 -61 11t-62 21q-3 -27 -10 -68t-19.5 -79t-31.5 -65.5t-46 -27.5q-30 0 -54.5 21.5t-44.5 56t-35.5 77t-28 83.5t-22 76.5t-16.5 56.5q-86 57 -155.5 124.5t-118 146.5t-75 170t-26.5 197zM123 864q0 -96 31 -180.5t79 -153.5t104.5 -122.5t107.5 -88.5 q-9 79 -15 130.5t-9 94.5t-4 88.5t-1 112.5q0 33 1.5 73t7 74.5t15.5 58t27 23.5q8 0 14.5 -7.5t12 -18t8 -24t2.5 -26.5q0 -27 -10 -40q-22 -30 -28 -64t-6 -71q0 -23 2 -64.5t5.5 -90t7.5 -98.5t8.5 -91.5t9.5 -68.5t8 -28q33 -18 68 -36q31 -14 69.5 -30.5t77.5 -27.5 q2 0 5 37t3 103q0 73 -5 165t-19.5 188t-40.5 188.5t-68 164t-102.5 115.5t-142.5 44q-66 0 -108.5 -28.5t-68.5 -75t-36 -105t-10 -120.5zM516 218q5 -37 18.5 -84.5t31 -90t36 -72t33.5 -30.5q18 0 30 20t20 49t14 62.5t11 62.5q-32 11 -57 20.5t-47 18t-43.5 19.5 t-46.5 25z" />
<glyph unicode="E" horiz-adv-x="707" d="M46 440q0 9 4.5 17.5t7.5 10.5q33 23 64.5 40t59.5 34.5t53 37.5t47 48q-20 12 -37.5 25.5t-29 31t-18 40.5t-6.5 53q0 32 16.5 71t44 72.5t62 56.5t72.5 23q46 0 67.5 -27t21.5 -70q0 -28 -8 -59.5t-23 -65t-35 -67t-43 -64.5q66 -19 123 -39t100 -40.5t67.5 -42 t24.5 -45.5q0 -25 -26.5 -51.5t-67 -54t-87.5 -57t-87.5 -61.5t-67.5 -65.5t-27 -69.5t19.5 -59.5t50 -38t66.5 -20t71 -5.5q36 0 66.5 5t46.5 10q33 11 50.5 19t19.5 7q10 0 17 -10q8 -13 8 -18q-1 -6 -27 -18q-28 -12 -66 -24q-29 -8 -66 -13.5t-78 -5.5q-45 0 -90 9 t-80 29t-57 52.5t-22 79.5q0 37 26 73t65.5 70.5t85 67t85 60.5t65.5 51.5t26 41.5q0 9 -14 20t-37 22.5t-51.5 22.5t-58 21.5t-58 19t-48.5 14.5q-24 -28 -65 -59t-83 -57t-78 -43t-52 -17q-7 0 -8 3t-1 8zM247 774q0 -43 21 -68.5t47 -37.5q29 32 48.5 67.5t31.5 68 t17 58.5t5 40q0 22 -10 33t-21 11q-29 0 -54.5 -17t-44.5 -42t-29.5 -55t-10.5 -58z" />
<glyph unicode="F" horiz-adv-x="897" d="M-45 799q0 12 10 23.5t23 13.5q13 1 35.5 3t50.5 5t60 5.5t63 4.5q13 1 40.5 1t56 2t51.5 7t28 17q2 7 3 16.5t3 17.5t7.5 13.5t16.5 5.5q9 0 14 -7.5t9.5 -18t10.5 -20t18 -14.5q12 0 43 -2t66 -4.5t65.5 -4.5t42.5 -3q18 -2 50 -9t62.5 -20t53 -31t22.5 -40 q0 -5 -1 -11t-9 -6t-19.5 5.5t-22.5 12t-22 12t-18 7.5q-14 2 -29 4t-30 2q-29 0 -70 -3t-79 -9t-64.5 -14t-26.5 -19q4 -23 11 -59t16.5 -77.5t18 -84.5t15.5 -78q13 -9 25 -13.5t23.5 -7t24 -5t30.5 -6.5q13 -4 28.5 -10t28 -11t21.5 -8.5t10 -3.5q10 -5 21.5 -8.5 t20.5 -9t15 -14t6 -23.5q0 -10 -14 -11q-11 0 -25 5t-29.5 10t-33 9.5t-37.5 4.5q-14 0 -29 -0.5t-27 -3.5t-20 -10t-8 -19q0 -1 3 -26t7 -55.5t7.5 -56t3.5 -26.5q0 -3 1 -7t3 -24t6 -63.5t10 -124.5q0 -8 -5 -12t-13 -4q-12 0 -19 12q-2 4 -5.5 26t-8.5 55t-10.5 73 t-11.5 80t-11 76t-8 63q-2 11 -12.5 17.5t-24.5 6.5q-31 0 -53.5 -6t-50.5 -6q-12 0 -28 4t-30.5 12t-24.5 19.5t-10 26.5q0 17 12 26.5t28.5 15t34.5 7.5t30 4q4 1 20 3.5t33 5.5t30 7.5t13 12.5q0 3 -1 5.5t-1 4.5q0 5 -4 29t-10 55.5t-13.5 67.5t-15 66.5t-14 50.5 t-10.5 20q-83 -8 -161 -17.5t-163 -9.5q-24 0 -47 2t-41.5 9.5t-29.5 23.5t-11 43z" />
<glyph unicode="G" horiz-adv-x="932" d="M56 -339q0 6 10 16.5t24.5 28.5t33 43.5t37.5 61.5q17 35 37 76.5t39 90.5t36 103t27 114q-8 -5 -16.5 -6t-13.5 -1q-28 0 -61.5 23t-62.5 74t-48.5 132t-19.5 196q0 55 8.5 107t28.5 92.5t52.5 65t80.5 24.5q45 0 74 -27.5t46 -72.5t23.5 -102.5t6.5 -117.5 q0 -42 -2.5 -84.5t-6.5 -81.5t-8.5 -72.5t-7.5 -56.5l25 24q24 23 47.5 44.5t47.5 38t49 26.5t52 10q41 0 74.5 -34.5t61 -88.5t48.5 -121t35.5 -132.5t23.5 -122.5t13 -91q9 0 21 1t36 1q120 0 198.5 -28.5t123.5 -80.5q2 -3 2 -8q0 -14 -6 -16q-6 0 -13.5 3.5t-21.5 12.5 q-68 37 -132 53t-147 16q-25 0 -36 -1.5t-20 -1.5q1 -16 2.5 -41.5t1.5 -54.5q0 -27 -3 -53.5t-10.5 -48t-22.5 -35t-38 -13.5q-24 0 -54 10.5t-56.5 30t-45.5 45.5t-19 59q0 29 16.5 53t43 42.5t62 31t72.5 18.5q-2 39 -10.5 93.5t-22 113.5t-32.5 117.5t-43 105t-53 75.5 t-61 29q-29 0 -60.5 -20.5t-61 -47.5t-55.5 -54t-44 -40q-9 -44 -26 -102.5t-40 -120t-50 -121.5t-55.5 -107t-57.5 -75.5t-54 -28.5q-22 0 -22 9zM133 588q0 -58 10 -118t28 -109t46 -79.5t64 -30.5q6 0 12.5 1t13.5 4q6 12 12.5 42t11.5 70t8 86.5t3 92.5q0 55 -4.5 109.5 t-16.5 97t-30.5 68.5t-45.5 26h-7q-27 0 -46.5 -21.5t-33 -57.5t-19.5 -83t-6 -98zM668 -315q0 -22 12.5 -37t30.5 -24t36.5 -13t29.5 -4q10 0 17 11t10.5 29.5t4.5 40.5t1 44q0 15 -0.5 28.5t-0.5 24.5q-25 -2 -50 -9.5t-45.5 -20.5t-33 -31t-12.5 -39z" />
<glyph unicode="H" horiz-adv-x="1102" d="M-251 945q0 14 6.5 22.5t18 12t26 4.5t29.5 1q26 0 64.5 -10t94.5 -22t131 -22t172 -10q30 0 50 10.5t35 26.5t26 34.5t22.5 34t26 26.5t34.5 11t23.5 -5.5t3.5 -28.5q0 -35 -22 -67.5t-49 -64.5q5 -43 12.5 -91t18 -105t25.5 -125t37 -149l79 53q-4 20 -5 41.5t-1 41.5 q0 66 19.5 128t58 110t95.5 77.5t131 29.5q44 0 71.5 -11.5t27.5 -48.5q0 -36 -23.5 -79t-59 -86t-78 -83t-79.5 -71t-63 -49.5t-30 -18.5q0 -15 10 -54t30 -88t50 -101.5t68 -96.5t86.5 -72t104.5 -28q14 0 27.5 3t24.5 6.5t17.5 6.5t8.5 3q9 0 17 -11t8 -17t-11.5 -12 t-29 -11t-37 -9t-34.5 -4q-57 0 -106 21.5t-89.5 57t-72 82t-56 96.5t-41.5 99.5t-26 92.5q-19 -13 -27 -18.5t-12.5 -8.5t-11 -7t-22.5 -15l7 -29l13.5 -54t14 -62t11 -63t4.5 -54q0 -70 -30.5 -102.5t-100.5 -32.5q-19 0 -53.5 3.5t-74.5 10.5t-82 16.5t-75.5 22t-55 27.5 t-21.5 32q0 24 21.5 52t52.5 55.5t67 53t64 43.5q13 8 39.5 24t54 33t51.5 31.5t34 21.5q-2 6 -9.5 34.5t-18 70.5t-23.5 91.5t-24.5 98t-22 89.5t-15.5 68l-23 -8q-24 -8 -60.5 -18t-80.5 -18t-85 -8q-13 0 -46.5 6t-76 17t-88.5 25t-84.5 29.5t-63 31.5t-24.5 30zM184 114 q0 -13 26.5 -28.5t65 -28.5t85.5 -21.5t88 -8.5q58 0 82 22.5t24 65.5v10.5t-1 11.5q-8 61 -17 115t-26 102q-16 -9 -43 -23.5t-57.5 -32t-63.5 -38.5t-63 -43.5t-55 -46.5t-41 -46q-4 -4 -4 -10zM664 542q0 -6 0.5 -12.5t2.5 -11.5q38 29 65 49t51 41t49 48t59 69 q30 37 46 65.5t16 47.5q0 24 -34 24q-65 0 -113 -27.5t-79.5 -72.5t-47 -102.5t-15.5 -117.5z" />
<glyph unicode="I" horiz-adv-x="770" d="M10 1018q0 23 14.5 56.5t37.5 65t51.5 55t58.5 23.5q56 0 96.5 -35.5t70.5 -89.5t51 -118.5t38 -123.5q12 -41 25 -105.5t25 -141.5t23.5 -160t20.5 -161t17 -147t12 -118q11 -125 19.5 -211t13.5 -141.5t8 -86.5t4 -45.5t1.5 -17.5t0.5 -4q0 -15 -0.5 -29.5t-3 -25.5 t-8.5 -17t-18 -6q-14 0 -22 10.5t-12.5 27.5t-5.5 37t-1 37q0 96 -7 215t-20.5 251t-30.5 273.5t-37 281.5q-16 114 -40 218.5t-55.5 183.5t-69.5 126t-82 47q-26 0 -44.5 -11.5t-32.5 -28t-24.5 -35.5t-19.5 -35.5t-17 -28t-17 -11.5q-19 0 -20 26z" />
<glyph unicode="J" horiz-adv-x="815" d="M-111 1151v6q11 12 19.5 19.5t19.5 7.5h4.5t6.5 -2q124 -28 225.5 -70t177.5 -100q45 -36 81 -73t63.5 -81.5t48 -98.5t34 -124t19.5 -158t6 -198q0 -24 0.5 -77.5t2.5 -124.5t6.5 -154t12 -165.5t18 -159t25.5 -136t35 -95t45 -35.5q28 0 55 22.5t48.5 55t35.5 67 t15 58.5q0 9 6 12.5t12 3.5t11.5 -3t5.5 -9q0 -36 -15 -82.5t-41 -89t-62.5 -71.5t-80.5 -29q-32 0 -58 37.5t-47 105t-36 160.5t-25 203.5t-15 235t-5 255.5q0 119 -8 220t-32.5 186.5t-71.5 156.5t-126 131q-48 36 -95.5 63t-97.5 47.5t-103 36.5t-111 32q-6 3 -7.5 7 t-1.5 7z" />
<glyph unicode="K" horiz-adv-x="1133" d="M-60 941q0 6 1 17t4 21.5t8.5 19t15.5 8.5q13 0 28 -13.5t32 -30t36.5 -29.5t43.5 -13q22 0 45 3.5t45.5 8t43.5 8.5t40 4q20 0 31.5 -1t17 -5t6.5 -13.5t1 -25.5v-23t2 -30q4 -18 11.5 -49t17.5 -66.5t21 -72t22 -67.5t21 -52t19 -24q13 -5 22 -5q13 0 26.5 6t30 13.5 t37 13.5t48.5 6q8 0 16 -1t16 -1q15 0 34.5 26t42 73.5t46.5 114t48 148.5q7 26 15.5 51t17.5 44.5t21 32t26 12.5q28 0 28 -18q0 -11 -8.5 -28t-18.5 -35.5t-19.5 -36t-12.5 -29.5q-19 -88 -45 -155.5t-49.5 -116t-41 -80t-18.5 -47.5q-1 -2 -1 -9q0 -3 6 -24.5t17.5 -55.5 t28.5 -76.5t39 -86t49.5 -85t58.5 -74t67.5 -52t76.5 -19.5q14 0 27.5 3t24 6.5t17.5 6.5t9 4q9 0 17 -11.5t8 -17.5t-11 -11.5t-28 -10.5t-36.5 -8t-35.5 -3q-67 0 -118 31.5t-90.5 80t-69.5 106.5t-53 109t-42 88t-36 44q-19 8 -41 8q-16 0 -34.5 -4t-34 -13t-25 -23 t-9.5 -32q0 -5 1 -7q2 -5 6.5 -37.5t9 -73t8 -80t3.5 -60.5q0 -27 -3 -53t-11.5 -47t-23.5 -34.5t-40 -13.5q-23 0 -48 18.5t-47 44.5t-37 56t-15 51q0 8 2 12t11 4t17 -4q7 -4 18 -24.5t27 -42.5t35.5 -39t43.5 -17q7 0 12.5 8t8.5 20t4.5 25t1.5 24v10q-5 97 -28.5 185 t-53.5 173l-60 170t-48 176q-4 17 -15 24t-31 7q-30 0 -72.5 -8t-87.5 -8q-27 0 -52.5 7t-46 21t-33 33.5t-12.5 45.5z" />
<glyph unicode="L" horiz-adv-x="856" d="M66 27q0 13 9.5 23t26 18t37 12t41.5 4q39 0 79 -6t72.5 -13.5t54.5 -13.5t26 -6q6 0 20 5t29.5 18.5t27 35.5t11.5 56q0 27 -24 105t-77 196q-31 -40 -63 -72.5t-60.5 -55t-50.5 -34.5t-32 -12q-12 0 -19.5 5.5t-7.5 8.5q0 14 4.5 20.5t15.5 14.5l9 6q45 34 78 64.5 t54.5 55t32.5 41t11 21.5q0 2 -1 2t-1 2l-9 25q-6 16 -16.5 40.5t-21 58.5t-18 78t-7.5 99q0 19 5.5 56.5t20 74t39.5 64t64 27.5q36 0 60 -16.5t38.5 -41t20.5 -53t6 -51.5q0 -57 -8.5 -108.5t-23.5 -97.5t-35.5 -88t-43.5 -83q23 -56 44.5 -105t38.5 -93t26.5 -84.5 t9.5 -79.5q0 -28 -7.5 -48.5t-19.5 -36t-26 -25.5t-25 -17q46 -15 88.5 -23t85.5 -8q41 0 77 7.5t63 17t43 17t18 7.5q9 0 18 -11.5t9 -17.5q0 -5 -21 -15.5t-55 -22.5t-77 -20.5t-87 -8.5q-39 0 -78 6t-73 13t-63 13.5t-48 6.5q-36 0 -94 -9.5t-127 -9.5q-42 0 -68 17 t-26 45zM354 815q0 -58 15.5 -120.5t42.5 -116.5q19 43 34.5 80t25 73.5t15 74t5.5 79.5q0 12 -2.5 30t-9 34.5t-20 28t-36.5 11.5q-22 0 -35.5 -20t-21.5 -47.5t-10.5 -57t-2.5 -49.5z" />
<glyph unicode="M" horiz-adv-x="1211" d="M-50 78q0 8 5 14t16 6q13 0 24.5 -10t22.5 -26t20 -35.5t17 -37.5q3 -8 16.5 -32t30.5 -50t36.5 -46t34.5 -20q16 0 33.5 37t34.5 98.5t34 141t33 165.5t31 171.5t28 158.5t24 128t21 78q0 7 1 20t4.5 26.5t11 23t21.5 9.5q16 0 18.5 -9t2.5 -28q0 -5 1 -16.5t1.5 -25 t1.5 -26t1 -16.5q0 -12 2.5 -48.5t8 -87t12 -111.5t14 -122.5t17 -119.5t18.5 -102.5t18 -71.5t18 -27q16 0 36.5 34.5t42 90t43 127t41.5 144.5t38 142.5t31 123.5q2 11 5 20.5t5 17.5l17 65q1 7 12 7q9 0 21.5 -10t12.5 -41q0 -41 -10 -83t-10 -89q0 -46 5 -110t15 -133 t28 -138t44 -122.5t62.5 -87.5t83.5 -34q15 0 33 4.5t33.5 10.5t25.5 10.5t12 3.5q9 0 18 -10.5t9 -18.5q0 -3 -13.5 -10.5t-35 -15.5t-47 -13.5t-49.5 -5.5q-52 0 -91 26t-67.5 68.5t-48 96.5t-32 110.5t-20 110t-11.5 95.5q-2 17 -3.5 29t-1.5 16l-3 2q-5 0 -12.5 -22 t-18.5 -58t-24.5 -81.5t-29 -93t-34 -93t-39 -81.5t-43.5 -58t-48 -22q-15 0 -29 28t-26 73t-23 102.5t-19.5 118.5t-15.5 120.5t-11.5 107t-7 79t-2.5 36.5q-17 -67 -33 -159.5t-33 -192.5t-36 -198t-41.5 -176t-49 -126t-59.5 -48q-24 0 -47.5 20t-46.5 49t-42.5 60.5 t-32.5 55.5q-6 9 -16 25t-20.5 33t-17.5 33t-7 26z" />
<glyph unicode="N" horiz-adv-x="968" d="M16 -135q0 17 7 24t16 7q6 0 11 -3.5t7 -9.5q4 -16 15 -52t26.5 -73t35 -64.5t40.5 -27.5q13 0 25.5 21.5t22.5 56t18.5 75.5t14.5 80.5t9.5 72t5.5 48.5q7 100 19.5 202.5t27.5 212.5t30 231t30 262q1 5 4 8.5t7 6.5q4 4 9 7q7 0 12.5 -5t8.5 -11.5t4.5 -13.5t1.5 -11 l18 -129q14 -100 34 -214.5t59 -227.5l10 -33q15 -48 34.5 -107t42 -110t47 -86t50.5 -35q29 0 50.5 30t35 80t20 116t6.5 139q0 142 -11.5 266.5t-27.5 222t-33.5 164.5t-27.5 96q-8 11 -8 21q0 11 7.5 17.5t17.5 6.5q17 0 33.5 -29.5t31.5 -82t28.5 -124.5t22.5 -156.5 t15 -178t6 -188.5q0 -98 -8 -182.5t-24.5 -146t-44 -96t-65.5 -34.5q-40 0 -73.5 28.5t-64 79.5t-58 121t-53.5 154q-20 61 -34 115.5t-24 102.5t-19 90.5t-20 80.5q-13 -91 -24 -187t-21 -193t-20.5 -195t-24.5 -191q-1 -20 -4.5 -50.5t-10.5 -63.5t-18 -67t-26.5 -60.5 t-34.5 -43t-43 -16.5q-20 0 -40 18t-37 45t-31.5 59t-24 60t-15.5 47.5t-6 22.5z" />
<glyph unicode="O" horiz-adv-x="809" d="M125 560q0 54 6.5 116.5t18.5 116t28.5 88.5t35.5 35q8 0 16 -7.5t8 -19.5q0 -28 -4.5 -50t-10.5 -42.5t-13 -42t-13.5 -49t-10.5 -63t-4 -84.5q0 -132 22.5 -245.5t60.5 -196.5t87 -130t103 -47q38 0 69 25t54 73.5t36 118.5t13 161q0 70 -14 155.5t-39 175.5t-60.5 179 t-78.5 166q-9 17 -18 36.5t-16 37t-11 33t-4 26.5q0 13 6 21t14 12t15.5 5t10.5 1q15 0 24.5 -10.5t15.5 -26.5t10 -35.5t10 -37t14.5 -31t23.5 -17.5q8 -3 17 -4t17 -1q36 0 75.5 14.5t72 32t55.5 32.5t25 16q7 3 15 3q13 0 22 -7t9 -14q0 -5 -27 -26t-68 -44.5 t-88.5 -42.5t-90.5 -19q-7 0 -18 2t-18 4q34 -87 63.5 -171.5t51 -166t33.5 -162t12 -158.5q0 -88 -14.5 -164t-43.5 -131.5t-72.5 -87.5t-101.5 -32q-52 0 -110.5 41t-107.5 124.5t-81 211.5t-32 303z" />
<glyph unicode="P" horiz-adv-x="762" d="M-83 914q0 11 4 20q6 14 31.5 27t62 23t78.5 18.5t81.5 13.5t72 8t48.5 3q40 0 71.5 3t64.5 3q32 0 69 -5.5t88 -21.5q50 -16 80.5 -43t47.5 -60t22.5 -69.5t5.5 -73.5q0 -33 -10 -80.5t-27 -96.5t-39 -93t-44 -68q-11 -11 -19 -18.5t-13 -11.5q-6 -4 -10 -6 q-36 7 -36 22q0 6 6 14q26 34 49 77t40 85t27 79t10 61q0 44 -12.5 78.5t-47.5 57.5t-99 34.5t-168 11.5q-42 0 -79.5 -4.5t-77 -11t-88 -13.5t-111.5 -11h-9q-39 0 -54 15.5t-15 32.5zM325 712q0 5 7 15.5t16 10.5t16.5 -13.5t13.5 -36t11.5 -51t11 -57.5t11.5 -55.5 t13 -46.5q15 -42 28 -95t24.5 -108t22 -106.5t20.5 -90.5q14 -56 30 -107.5t16 -86.5q0 -7 -6 -11t-14 -4q-13 0 -21.5 16.5t-15.5 49t-17 81t-26 113.5q-12 49 -24 90t-23 80.5t-23 81.5t-25 93q-4 15 -12 48t-15.5 69.5t-13 69.5t-5.5 51z" />
<glyph unicode="Q" horiz-adv-x="1123" d="M260 654q0 85 10.5 149t21.5 122q5 10 11.5 15t19.5 5q9 0 13 -3t10 -12q-6 -31 -11.5 -52.5t-10.5 -46.5t-7.5 -60.5t-2.5 -93.5q0 -92 10.5 -183.5t29.5 -174t45.5 -153.5t58 -123t67.5 -82t74 -30q17 0 38 6t43.5 21t45 43t41.5 73q0 1 -11 13t-26 30.5t-32.5 40.5 t-30.5 44q-3 5 -6 10.5t-3 9.5q0 8 9 13t18 5q19 0 44.5 -22.5t63.5 -72.5q11 33 16 79t5 102q0 75 -10 160t-30 170t-50.5 164.5t-71 142.5t-91.5 103t-112 46q-13 2 -21.5 12t-8.5 21q0 19 37 22q69 -11 126.5 -52.5t103 -104.5t80 -143t57 -167t33.5 -177.5t11 -174.5 q0 -71 -7.5 -133t-22.5 -114q31 -41 70.5 -79t79.5 -71.5t75.5 -59t56.5 -39.5q0 -27 -15 -27q-6 0 -14 3t-16 8q-67 36 -108 64.5t-69 52t-47 43.5t-39 39q-22 -46 -49 -78t-55 -51t-55 -27t-48 -8q-62 0 -112 38.5t-88 101.5t-65.5 145t-45 169t-25.5 172.5t-8 156.5z" />
<glyph unicode="R" horiz-adv-x="1097" d="M-198 878q0 17 15.5 33t34.5 21q179 52 322.5 80t240.5 28q37 0 81.5 -4.5t89.5 -13.5t87.5 -24t74.5 -36t52 -48t20 -62q0 -17 -13 -34.5t-34 -34.5t-48 -33.5t-53 -31.5t-49.5 -27.5t-37.5 -22.5q6 -1 12.5 -1h13.5q22 -1 44.5 -3t45.5 -12.5t47.5 -32t50 -61.5 t53 -101t55.5 -150q29 -89 49 -149t33 -99.5t21.5 -65t14 -47t10 -44t12.5 -57.5q7 -42 21.5 -110.5t29.5 -144.5t26 -150t11 -126q0 -37 -7 -59t-23 -22q-10 0 -18.5 26t-16 70t-15 101.5t-16.5 121t-20 128t-25 121.5q-10 42 -24.5 93t-30 105t-32.5 109t-33 106 q-38 120 -77 244q-24 53 -52 83t-56.5 45t-54.5 18.5t-44 3.5q-15 0 -38.5 -1t-47.5 -6t-46 -16.5t-36 -31.5q4 -63 14.5 -117.5t24 -104.5t29 -100.5t30.5 -106.5q8 -30 16 -57t8 -50q0 -14 -6 -25t-18 -11q-9 0 -17 6t-10 15q0 30 -6.5 55t-15 48.5t-18.5 47.5t-17 51 q-13 52 -21.5 93.5t-15 77t-12 67.5t-12.5 65q-3 14 -8 36.5t-10 50t-10 56.5t-10 57q-11 66 -26 140q-5 17 -21 32.5t-33 15.5q-46 0 -87.5 -9.5t-82.5 -21t-82.5 -21t-86.5 -9.5q-8 0 -18 -0.5t-21 -0.5q-13 0 -27 1.5t-24.5 6t-18 13.5t-7.5 24zM378 852q0 -25 1 -48.5 t5 -51.5t10 -63t18 -81q14 12 45 31.5t69 42.5t78 48t73.5 47.5t54.5 42t21 31.5q0 10 -15.5 21t-40 19.5t-56.5 16t-64.5 13.5t-64.5 9t-55 3q-18 0 -33 -3t-25 -12t-15.5 -24.5t-5.5 -41.5z" />
<glyph unicode="S" horiz-adv-x="647" d="M85 751q0 20 5 52.5t15 68t24 72.5t33 66t42 47.5t51 18.5q4 0 10 -0.5t12.5 -3t10.5 -7t4 -12.5q0 -15 -9 -21.5t-23 -11.5q-39 -14 -61.5 -53t-34 -86.5t-15.5 -98t-4 -87.5q0 -69 12.5 -133t32.5 -124.5t45.5 -118.5t52.5 -113q8 -16 24 -44.5t36 -63.5t42.5 -72.5 t43.5 -73.5t38.5 -67t29.5 -51q40 -71 66.5 -128.5t26.5 -116.5q0 -8 -3.5 -26.5t-9 -37t-13 -32.5t-15.5 -14q-10 0 -17 8.5t-7 35.5q0 3 1 14t2.5 23.5t2.5 22.5t1 14v6q-6 58 -32.5 111t-58.5 102q-86 134 -151.5 250t-114.5 233q-26 59 -43.5 111t-29.5 104t-17 109.5 t-5 127.5z" />
<glyph unicode="T" horiz-adv-x="593" d="M-25 862q0 25 31 33t88 8q7 0 26.5 -0.5t45 -1.5t54.5 -2t56 -2.5t49 -2.5t33 -1q32 -3 75.5 -10t89.5 -18t90.5 -23t80 -23.5t57 -21.5t21.5 -15q0 -2 -15 -6t-50 -4q-61 0 -124.5 10.5t-127.5 10.5q-20 0 -43.5 -1t-43 -6t-32 -13t-12.5 -21q0 -34 2.5 -61t6.5 -56.5 t8 -64t7 -83.5q7 -96 21 -188.5t28 -172.5t23.5 -143t9.5 -100q0 -5 -5.5 -5.5t-10.5 -0.5q-17 0 -24 6.5t-9 10.5q-20 108 -34.5 204.5t-22.5 170.5q-11 87 -17 163q-5 59 -9.5 117.5t-9.5 104.5t-12 76.5t-14 35.5q-5 1 -11 2t-19.5 1.5t-35.5 0.5h-57q-28 0 -57 2 t-52.5 11.5t-39 27.5t-15.5 51z" />
<glyph unicode="U" horiz-adv-x="892" d="M172 1057q0 34 10.5 52.5t30.5 18.5q18 0 23.5 -17.5t5.5 -39.5v-63q0 -27 1.5 -75t4.5 -111t7 -137t9.5 -150t11.5 -152t12.5 -143.5t13 -123.5t13.5 -91q0 -15 9.5 -33.5t21.5 -18.5q4 0 21.5 37t41 94.5t50 126t51 132.5t42 114.5t23.5 71.5q13 43 25.5 86.5t22 79 t15.5 58t7 22.5q4 16 6.5 38t7 42t10.5 34.5t17 14.5h4.5t7.5 -1t7.5 -3t3.5 -7q3 -73 5 -151t4 -160t4 -166t5 -166q0 -14 1.5 -35t4.5 -43.5t7.5 -44.5t11.5 -38q12 -39 19 -65.5t7 -43.5q0 -24 -7.5 -30.5t-18.5 -6.5q-5 0 -18 21t-26 66.5t-23 117.5t-11 172 q0 59 -1.5 117t-3 105.5t-2.5 79.5t-1 40q-12 -44 -29 -95q-14 -45 -33 -104t-43 -129q-19 -56 -34.5 -98.5t-29 -77.5t-25.5 -64.5t-26 -60.5t-30 -66.5t-35 -80.5q-5 -10 -12 -15.5t-14.5 -8t-13.5 -3t-9 -0.5q-17 0 -30 16t-22 39t-14 48.5t-8 44.5q-11 68 -20.5 150 t-17.5 171.5t-14.5 183t-12.5 184t-10.5 174t-8.5 152.5q0 3 -1 6.5t-1 8.5z" />
<glyph unicode="V" horiz-adv-x="847" d="M10 565q0 15 7.5 42t25.5 67q29 61 55 113t49.5 88.5t46 57.5t46.5 21q29 0 51 -40t39.5 -106t31 -150t25 -172t22 -172t22 -150.5t25.5 -107.5t31 -42q7 -1 19.5 28.5t27.5 77.5t32 108.5t32.5 123t30 121t24.5 102.5q10 45 21 87.5t22 83.5t22 84t23 92l39 155 q5 14 11.5 25.5t21.5 11.5q27 0 27 -29q0 -8 -2 -12q-24 -112 -64 -253t-80 -302q-8 -32 -20 -87.5t-28 -120t-34.5 -130.5t-38.5 -120t-42 -87.5t-44 -33.5q-30 0 -50.5 31t-35.5 78.5t-25 102.5t-18 103q-11 71 -19 142.5t-19 143.5t-26.5 145t-41.5 146q-6 16 -14 17 q-15 0 -39 -34.5t-52 -88.5q-11 -22 -27 -55t-32.5 -64t-31.5 -53.5t-25 -22.5q-5 0 -13 7.5t-8 27.5z" />
<glyph unicode="W" horiz-adv-x="971" d="M-284 812q0 15 12 15q65 4 107.5 10.5t73 13.5t52 16t40.5 18t41.5 19t54.5 22q4 0 6.5 0.5t6.5 0.5q13 0 19.5 -10.5t9.5 -26.5q1 -33 5 -82.5t9.5 -108.5t11 -124t11 -129.5t10 -125t8.5 -110.5q1 -16 3.5 -45t8 -56.5t14.5 -48t22 -20.5q9 0 17 5t18.5 21t24 46.5 t35.5 82.5q10 25 20.5 49.5t23 44.5t30.5 32.5t45 12.5q20 0 41 -29t42.5 -72t44 -92.5t47 -92.5t51 -71.5t54.5 -28.5q12 0 19 19t10 46.5t3.5 58t0.5 54.5q0 84 -1 190t-1 229q0 112 5 200t25.5 149t62.5 93.5t116 32.5q71 0 115 -20.5t69 -47t33.5 -54t8.5 -40.5 q0 -5 -3.5 -17.5t-12.5 -12.5q-5 0 -8.5 9.5t-10.5 24t-17 30t-28.5 30t-46.5 23.5t-70 9q-68 0 -104.5 -27.5t-53.5 -77t-19.5 -117.5t-2.5 -149v-383q0 -55 -1.5 -111t-9.5 -101t-25.5 -73.5t-49.5 -28.5q-36 0 -69.5 28.5t-64 70.5t-56 90.5t-47 90.5t-37 70t-25.5 28 q-9 0 -21 -21.5t-27.5 -54t-33 -70.5t-36 -71t-38.5 -54.5t-39 -21.5q-25 0 -42 18.5t-28 45t-17 56.5t-10 52q-6 49 -12.5 118t-13 143t-13.5 147t-14 130.5t-14.5 93.5t-14.5 36q-10 0 -31 -6.5t-45.5 -16.5t-51.5 -21.5t-51.5 -21.5t-45 -16.5t-31.5 -6.5q-17 0 -34 3 q-11 3 -22 13t-19 23t-13.5 27t-5.5 24z" />
<glyph unicode="X" horiz-adv-x="841" d="M45 -45q0 23 16.5 36t34.5 32q73 74 142.5 159t130.5 189q-6 17 -12 32t-11 27q-60 147 -104.5 237.5t-75 141t-45.5 71.5t-15 31q0 3 6.5 13t18.5 10q26 0 57.5 -38t67 -103t73.5 -151.5t77 -182.5l6 -19q29 51 60 111t56 122.5t41.5 124.5t16.5 120q0 20 -3 37t-3 34 q0 8 5.5 15.5t12.5 12t13.5 7t9.5 2.5q10 0 16.5 -14.5t11 -32.5t6.5 -36t2 -25q0 -40 -10 -85.5t-26 -91t-34 -88t-33.5 -75.5t-27 -54t-12.5 -24q-14 -34 -36 -68t-40 -63q15 -38 34.5 -78t44.5 -81t57.5 -82t74.5 -79q29 -25 55 -38.5t46 -21t32.5 -12.5t12.5 -10 q0 -6 -4 -12.5t-13 -11.5q-73 0 -133 34.5t-108 88.5t-83.5 118t-60.5 121q-28 -50 -64.5 -100.5t-73.5 -95t-70.5 -80.5t-55.5 -56q-14 -14 -22 -21.5t-13.5 -12t-11.5 -6.5t-19 -3q-11 0 -14.5 7t-3.5 18z" />
<glyph unicode="Y" horiz-adv-x="985" d="M-293 721q0 12 6.5 23t16.5 20q40 41 74 81.5t72.5 72.5t85 52.5t110.5 20.5q42 0 75 -33t59 -88t47 -124.5t39.5 -142.5t35.5 -142.5t35.5 -124t39.5 -88t48 -33.5q18 0 34 28.5t29.5 78t25.5 115t21.5 138.5t17 150t13.5 149q2 26 5.5 41.5t9 23t14.5 9.5t22 2 q22 0 41 -36.5t37.5 -99.5t34.5 -146.5t29.5 -177t24.5 -189.5t18.5 -185t11.5 -165.5t4 -128.5q0 -169 -16.5 -274.5t-40 -164t-49.5 -79.5t-46 -21q-11 0 -29 3.5t-36 13t-30.5 25.5t-12.5 40q0 7 1.5 16t5.5 16.5t10 13t15 5.5q12 0 19 -7t12 -16t12 -16.5t19 -7.5 q19 0 39 27t36.5 81t27 135.5t10.5 190.5q0 113 -9 233.5t-23 235t-30 216.5t-31.5 178.5t-28.5 122t-18 45.5q-3 0 -3 -23.5t-3 -52.5q-2 -8 -3 -17.5t-1 -21.5q-4 -40 -10.5 -98t-16.5 -121t-24.5 -125t-33.5 -111t-44.5 -79.5t-58.5 -30.5q-42 0 -73.5 32.5t-56 86 t-43.5 121.5t-37.5 138.5t-37 138.5t-41.5 121.5t-51.5 86t-67.5 32.5q-43 0 -102 -42t-146 -124q-7 -6 -16.5 -15t-20 -18.5t-19.5 -15.5t-15 -6q-5 0 -12 8t-7 23z" />
<glyph unicode="Z" horiz-adv-x="847" d="M14 -25q0 47 22.5 78.5t53.5 50t64 26t55 7.5q13 0 29 -1t31.5 -2.5t28.5 -4t21 -4.5q41 52 83.5 119.5t82.5 140t75 143.5t61 132.5t41.5 107.5t15.5 68q0 12 -11 18t-26 6q-17 0 -40.5 -4.5t-49 -9.5t-50.5 -10t-46 -5q-38 0 -83.5 7.5t-92 19.5t-90 30t-76.5 40 q-6 3 -9.5 11t-3.5 19q0 14 5.5 25.5t19.5 11.5q13 0 22 -6q26 -16 73 -29.5t101 -23t107 -15.5t92 -6q36 0 63 2.5t58 2.5q16 0 33.5 -3.5t31.5 -12t22.5 -23.5t8.5 -37q-3 -30 -21 -82t-45.5 -116.5t-63.5 -137.5t-75.5 -144.5t-82 -138t-82.5 -119.5q40 -17 89.5 -34 t99.5 -30.5t96 -22.5t79 -9q18 0 35 3t51 16q11 3 20 7.5t11 3.5q11 0 18.5 -10t7.5 -18q0 -4 -7 -8.5t-17 -9t-21 -8.5t-18 -6q-24 -8 -50 -11.5t-69 -3.5q-30 0 -72.5 7.5t-92.5 19.5t-101.5 27.5t-97.5 31.5q-17 -20 -43.5 -45t-57 -46.5t-64 -36.5t-65.5 -15 q-14 0 -29 2.5t-27 10t-20 21t-8 33.5zM84 -10q0 -8 5.5 -15.5t16.5 -7.5q16 0 41 10.5t49.5 25.5t45 32.5t30.5 32.5q-14 2 -27 3t-24 1q-20 0 -44 -5.5t-44.5 -16t-34.5 -26t-14 -34.5z" />
<glyph unicode="a" horiz-adv-x="691" d="M93 122q0 38 11 78.5t33.5 73t55 54t77.5 21.5q18 0 32.5 -5t27 -15t25.5 -25t29 -36q5 -7 11 -9t12 -4.5t11 -7t9 -16.5q7 -24 22.5 -59t38 -68.5t50.5 -57.5t61 -24q47 0 67.5 9.5t25.5 9.5q9 0 17.5 -10.5t8.5 -17.5q0 -4 -3.5 -6t-5.5 -4q-23 -12 -51.5 -17.5 t-55.5 -5.5q-42 0 -71.5 12t-50.5 31t-35 41t-24 41t-19 32t-18 14q-8 -32 -28 -62t-45 -53t-54 -36.5t-54 -13.5q-56 0 -83 35.5t-27 100.5zM142 146q0 -18 3 -36t10 -31.5t16.5 -22t23.5 -8.5q22 0 46.5 16t46.5 41.5t36.5 57t14.5 61.5q0 11 -5.5 22.5t-15.5 20.5 t-22 15.5t-26 6.5q-53 0 -89 -40t-39 -103z" />
<glyph unicode="b" horiz-adv-x="658" d="M80 201q0 15 6 29l19 38q-12 75 -12 161q0 98 14.5 196t41 176.5t65.5 127t87 48.5q23 0 41.5 -13.5t32 -35t21 -49.5t7.5 -58q0 -73 -24 -151.5t-60 -154t-78 -142.5t-78 -117q8 -49 23 -91t37 -73t51 -47.5t66 -16.5q26 0 51.5 9t46 30.5t33.5 55.5t15 83 q-32 10 -53 27.5t-34.5 38.5t-19 42t-5.5 37q0 24 14.5 41.5t42.5 17.5q25 0 44 -13.5t32 -35.5t21 -51.5t11 -61.5q8 -5 18 -7t23 -2q22 0 44.5 5t42.5 11.5t35 12t18 5.5q5 0 6.5 -5.5t1.5 -10.5q-1 -16 -17.5 -28.5t-39.5 -20t-49.5 -11.5t-49.5 -4q-20 0 -32 3 q-8 -60 -25.5 -103t-43 -69.5t-58.5 -38.5t-72 -12q-43 0 -78 16.5t-62.5 47t-47.5 72t-33 91.5l-5 -7q-12 -15 -22 -16q-13 0 -13 24zM150 385q0 -20 2 -40q5 9 11 18l12 18q31 47 61 96.5t54.5 103.5t40 113t15.5 124q0 40 -15.5 60.5t-35.5 20.5q-33 0 -59.5 -41.5 t-45.5 -109t-29.5 -152.5t-10.5 -171v-40zM423 344q0 -6 4.5 -17.5t12 -23t19 -22.5t24.5 -16q0 6 -3.5 21t-10 30.5t-15.5 26.5t-18 11q-13 0 -13 -10z" />
<glyph unicode="c" horiz-adv-x="515" d="M92 188q0 32 9.5 66t29.5 61.5t50 45t73 17.5q33 0 65.5 -12t58.5 -35.5t42 -58t16 -81.5q0 -11 -4.5 -31t-15 -40t-28 -34t-42.5 -14q-26 0 -48 14.5t-37.5 40t-25 58t-9.5 68.5q0 15 4 30t23 15q12 0 21 -7t14 -18t7.5 -22.5t2.5 -22.5q0 -20 -5.5 -29.5t-5.5 -20.5 q0 -25 18.5 -38.5t39.5 -13.5q15 0 28.5 16.5t13.5 46.5q0 33 -11 58t-29.5 42t-42 26t-47.5 9q-30 0 -50.5 -13.5t-32.5 -34.5t-17.5 -46t-5.5 -49q0 -44 21.5 -76.5t53.5 -54.5t69.5 -33.5t70.5 -11.5q34 0 60.5 5.5t46 12.5t30.5 12.5t15 5.5q7 0 15.5 -9t8.5 -18 q0 -8 -19.5 -17t-47.5 -16.5t-59.5 -12t-56.5 -4.5q-20 0 -47.5 3.5t-57.5 13t-58.5 25.5t-51.5 40.5t-37.5 59.5t-14.5 82z" />
<glyph unicode="d" horiz-adv-x="892" d="M76 141q0 46 16 82t45 60t69.5 37t90.5 13q38 0 78.5 -12t71.5 -33q7 7 19.5 37.5t27 73.5t30 92t28.5 93.5t23 78.5t13 47q4 15 9.5 41.5t11.5 56.5t12 58.5t10 48.5q2 15 8.5 22t13.5 7q11 0 15.5 -14t4.5 -29q0 -10 -3.5 -34t-9 -57t-11.5 -70.5t-11 -72t-8.5 -64 t-3.5 -45.5q0 -95 14.5 -190.5t41 -172t63 -124t81.5 -47.5q28 0 45.5 8.5t22.5 8.5q9 0 17.5 -9.5t8.5 -18.5q0 -5 -7.5 -9.5t-18.5 -8.5t-24.5 -7t-26.5 -5q-8 -1 -16 -1.5t-11 -0.5q-37 0 -66.5 18.5t-53.5 49.5t-42.5 71t-32 81t-22.5 81t-13 71q-6 43 -7 72t-5 30 q-6 0 -16.5 -25.5t-22 -59t-23 -69t-19.5 -54.5q5 -9 13.5 -26.5t16.5 -38t14.5 -41t6.5 -33.5q0 -15 -6 -17q-16 1 -26.5 13.5t-18.5 27.5t-15 30t-17 22q-4 -6 -14 -24.5t-25 -43.5t-35.5 -52t-47 -49.5t-57 -37.5t-65.5 -15q-39 0 -65.5 15.5t-43.5 40.5t-24.5 57.5 t-7.5 65.5zM131 156q0 -28 4.5 -53.5t16 -44.5t29.5 -31t45 -12q18 0 40 13.5t42.5 34.5t40 46.5t34.5 49.5t26 44t14 29q-34 32 -62 42.5t-59 10.5q-39 0 -69 -11.5t-51.5 -30t-34 -41t-16.5 -46.5z" />
<glyph unicode="e" horiz-adv-x="416" d="M102 183q0 37 7.5 71.5t23 61.5t41 43t62.5 16q31 0 50.5 -22.5t19.5 -54.5q0 -22 -5.5 -48.5t-20 -52.5t-39.5 -48.5t-64 -35.5q7 -26 23 -44.5t35.5 -30t40 -17.5t36.5 -6q20 0 39 4.5t32.5 9t23 8.5t11.5 4q10 0 17.5 -10.5t7.5 -18.5q0 -5 -13.5 -12t-34.5 -13 t-44.5 -10.5t-42.5 -4.5q-40 0 -70.5 11.5t-53.5 30t-38.5 41.5t-25 46.5t-14 45t-4.5 36.5zM159 200q0 -16 3 -28.5t6 -12.5q10 0 24 10t26 26.5t21 37t9 42.5q0 7 -4 21t-20 14q-18 0 -31 -10.5t-20.5 -27.5t-10.5 -36.5t-3 -35.5z" />
<glyph unicode="f" horiz-adv-x="485" d="M68 148q0 17 12 35t34.5 47t53 76t65.5 124q0 22 -1.5 59t-1.5 88q0 61 5 129t19 126t40.5 95.5t70.5 37.5q38 0 54 -29.5t16 -78.5q0 -43 -11.5 -98.5t-31.5 -114.5t-45 -119.5t-53 -113.5l2 -32q6 -100 13.5 -196.5t20.5 -180.5h7q34 0 62.5 7.5t55.5 19.5q2 1 6.5 3 t10 4t10 3.5t5.5 1.5q9 0 17 -9.5t8 -18.5q0 -5 -12 -12q-36 -20 -75 -32t-86 -20q3 -18 6 -40.5l6 -45t6.5 -44t7.5 -38.5q19 -106 39.5 -203.5t36.5 -179.5t26 -147t10 -107q0 -14 -8 -18.5t-17 -4.5q-13 0 -32.5 25.5t-33.5 71.5q0 1 -5 29.5t-13.5 79t-19.5 120t-23 150 t-23.5 170t-21.5 180.5q-33 1 -64 9.5t-55 24t-38 35.5t-14 44q0 30 13 43.5t28 13.5q9 0 16 -6.5t7 -18.5q0 -38 21 -55t59 -27l20 -4q-10 88 -17 173.5t-10 162.5q-13 -26 -37.5 -63t-50 -71.5t-47.5 -58.5t-29 -24q-5 0 -9.5 4.5t-4.5 18.5zM284 560q0 -3 0.5 -11 t1 -16.5t0.5 -14.5l1 -7q22 45 38 93.5t27.5 95t17.5 87t6 70.5q0 8 -3 18.5t-16 10.5q-14 0 -27 -17t-23.5 -55.5t-16.5 -101t-6 -152.5z" />
<glyph unicode="g" horiz-adv-x="534" d="M75 98q0 24 3 56t11 67.5t21.5 70.5t34 62.5t48 44.5t64.5 17q44 0 63.5 -39t19.5 -95q0 -50 -14 -106q2 0 8 -1.5t14.5 -7.5t17.5 -17t17 -29q1 0 6.5 -14t14.5 -34.5t18.5 -45t17 -45.5t13.5 -35.5t6 -15.5q10 22 22.5 48.5t23.5 49t19 37.5t12 15q1 0 2 0.5t3 0.5 q5 0 11 -2t10 -7q6 -6 6 -24q0 -2 -5 -13t-13 -28t-18.5 -39t-20.5 -46q-1 -2 -4 -9.5t-6.5 -17t-7 -17.5t-3.5 -11q39 -128 63.5 -252t24.5 -252q0 -73 -10.5 -139.5t-32.5 -117t-56.5 -80t-81.5 -29.5q-32 0 -53 15.5t-34.5 46t-19 73.5t-5.5 97q0 71 10.5 152.5t30 165.5 t45.5 165.5t56 151.5q-34 86 -55 143t-33 77q-11 -12 -26 -35.5t-35 -48.5t-45 -45.5t-55 -25.5q-30 0 -49.5 18.5t-31.5 45t-17 55.5t-5 49zM128 90q0 -16 2 -33.5t7.5 -32t15.5 -23.5t25 -9q17 0 30.5 8t24 20.5t19 27.5t16.5 30l6 12t4 6l1 3q-4 1 -14.5 7t-10.5 23 q0 5 2 13.5t4 14.5q5 16 9.5 35t9 38.5t6.5 38.5t2 34q0 26 -7 42.5t-23 16.5q-30 0 -51 -15t-35 -39t-23 -54.5t-13 -60.5t-5.5 -58t-1.5 -45zM341 -793q0 -72 18.5 -108t48.5 -36q29 0 48.5 27t33 71t19.5 101t6 115q0 59 -5.5 118t-14.5 112t-19.5 98.5t-20.5 78.5 q-23 -58 -43.5 -133t-36.5 -153.5t-25 -154t-9 -136.5z" />
<glyph unicode="h" horiz-adv-x="666" d="M103 238q0 12 14.5 32t28.5 47v83q0 136 10 243t30 180.5t50 112t71 38.5q46 0 65.5 -30t19.5 -80q0 -54 -19 -125t-47.5 -146t-62.5 -146.5t-64 -127.5q1 -53 4.5 -101t7 -85t8 -58.5t9.5 -21.5q4 0 10.5 17t15 42.5t19.5 55.5t22.5 55.5t25 42.5t27.5 17 q29 0 47.5 -19.5t33 -48.5t27.5 -63t30.5 -63t41 -48t60.5 -19q33 0 54 9.5t26 9.5q9 0 17 -10.5t8 -18.5q0 -5 -11 -10.5t-28 -10.5t-37 -8t-37 -3q-38 0 -67.5 16.5t-51 41.5t-37 55t-28 55t-22 42t-19.5 17q-11 0 -20.5 -18.5t-20 -46t-20.5 -59.5t-21.5 -59.5t-24 -46 t-28.5 -18.5q-32 0 -48.5 69.5t-21.5 208.5q-22 -31 -29 -31t-12.5 10t-5.5 22zM199 419q26 54 51.5 115t46 119.5t33.5 110t13 87.5q0 28 -9 43.5t-29 15.5t-36 -21.5t-27.5 -57.5t-19.5 -85t-13 -103.5t-7.5 -112t-2.5 -111.5z" />
<glyph unicode="i" horiz-adv-x="377" d="M85 529q0 10 9.5 16t24.5 6q17 0 35 -12t23 -38q0 -17 -10.5 -28t-31.5 -11q-9 0 -18 7t-16.5 18t-11.5 22t-4 20zM106 200q0 20 8 38.5t36 20.5h8q12 -7 21 -10t9 -20t-6.5 -38t-6.5 -37q0 -31 11 -55t27.5 -41.5t37 -26.5t41.5 -9q22 0 37 3t25 6.5t16 6.5t9 3 q10 0 17.5 -11t7.5 -18q0 -4 -9.5 -9.5t-26.5 -10.5t-39.5 -8.5t-46.5 -3.5q-53 0 -87 20t-53.5 52.5t-27.5 71.5t-8 76z" />
<glyph unicode="j" horiz-adv-x="582" d="M78 180q0 7 7.5 24t20 39t29 45.5t34 42.5t35.5 32t35 13q33 0 59.5 -28.5t46.5 -76t34.5 -110t25 -131.5t16 -139.5t8.5 -135.5q20 46 41.5 92.5t41.5 94.5q10 22 21.5 46t21.5 45t18 34.5t11 13.5q1 0 2 0.5t3 0.5q5 0 11 -2t10 -7q6 -6 6 -24q0 -2 -5 -13t-13 -28 t-18.5 -39t-20.5 -46q-30 -65 -61 -136t-60 -139q0 -9 0.5 -24t0.5 -31.5t0.5 -32.5t0.5 -25q0 -105 -6 -207.5t-18.5 -184t-32 -131.5t-47.5 -50q-27 0 -45.5 11t-30 31.5t-16.5 48t-5 61.5q0 62 14.5 137t36 150.5t47 144t47.5 119.5q-8 86 -16 167t-17 152.5t-19.5 131 t-24.5 102.5t-31.5 67t-38.5 24q-15 0 -30.5 -13t-29 -33t-27 -43t-24 -43t-19.5 -33.5t-15 -13.5q-5 0 -7.5 5.5t-4 14t-2 16.5t-0.5 14zM218 796q0 7 5.5 12t13.5 8t16.5 4.5t15.5 1.5q19 0 28 -10t9 -43q0 -19 -9 -30t-31 -11q-12 0 -20.5 7.5t-15 18.5t-9.5 22.5 t-3 19.5zM298 -885q0 -29 5.5 -46t18.5 -17q9 0 19.5 42.5t20 111t17 156t11.5 178.5q-12 -35 -28.5 -89.5t-30.5 -114.5t-23.5 -119t-9.5 -102z" />
<glyph unicode="k" horiz-adv-x="815" d="M102 681q0 75 5 141t14 116t23 79.5t32 29.5q19 0 20 -21q0 -2 -0.5 -3t-0.5 -3q-9 -48 -15.5 -91t-10 -98t-4.5 -127.5t-1 -180.5q0 -74 3.5 -149.5t10.5 -136.5t19 -99.5t29 -38.5q7 0 15 10t16 26.5t16.5 37t15.5 41.5q17 50 35 115q2 37 11.5 65.5t29.5 63.5 q16 55 39 96.5t48 68.5t50.5 40.5t48.5 13.5q33 0 56.5 -28t23.5 -85q0 -29 -9.5 -60.5t-26 -63t-42 -62t-55.5 -54.5q9 -50 31 -103.5t54 -97t74 -71.5t92 -28q27 0 45 8.5t22 8.5q9 0 17.5 -11t8.5 -17t-12 -12t-28 -10.5t-32 -7t-27 -2.5q-60 0 -108 26.5t-84.5 70 t-62 99t-41.5 114.5l-5 -2q-6 -2 -15 -4.5t-21 -5.5t-24 -3q-11 0 -25 10q-5 -1 -10.5 -20.5t-13.5 -49t-19 -63t-25.5 -62.5t-33 -48t-42.5 -19q-22 0 -38 28.5t-28.5 77t-21 113.5t-14 138t-7.5 150t-2 150zM392 357q0 -8 5.5 -11t14.5 -3q6 0 13 1t13 5q-2 9 -6.5 22.5 t-15.5 15.5q-5 0 -14.5 -8t-9.5 -22zM418 468q0 -2 8 -6q9 -4 21.5 -14t23.5 -26t14 -43q20 14 36.5 34.5t27.5 43t17 46t6 44.5q0 34 -9.5 49t-25.5 15q-14 0 -32 -11t-34 -30q-17 -20 -31 -46q-22 -40 -22 -56z" />
<glyph unicode="l" horiz-adv-x="457" d="M88 434q0 104 16 199t40 166.5t53 113.5t56 42q23 0 39.5 -11.5t27.5 -32t16 -47.5t5 -57q0 -73 -15 -154t-39.5 -158.5t-57 -144.5t-68.5 -111q10 -46 29 -85.5t45 -69t60 -46t74 -16.5q23 0 38.5 3t26 6.5t16.5 6.5t9 3q8 0 16.5 -9.5t8.5 -19.5q0 -5 -12 -11 t-30.5 -11t-39.5 -9t-37 -4q-55 0 -97.5 19.5t-73 53t-51 78.5t-33 95.5t-17.5 104.5t-5 106zM136 402q0 -30 2 -54t7 -42q12 11 27 42.5t30.5 74t30 93t26 102.5t18.5 100t7 86q0 37 -8.5 59t-28.5 22q-14 -2 -27.5 -26t-26 -62.5t-23 -88.5t-18.5 -103t-12 -106t-4 -97z " />
<glyph unicode="m" horiz-adv-x="1042" d="M88 273q0 17 8 26.5t15 9.5q18 0 34.5 -18.5t30 -46.5t26 -60.5t23.5 -61t20 -47t18 -18.5q13 0 27.5 16t30 39.5t31 51t31.5 51.5t32.5 39.5t33.5 15.5q15 0 27.5 -18t23.5 -44t20.5 -57t19.5 -57t19.5 -44t21.5 -18q23 0 41 15.5t34 39.5t30.5 51t31.5 50.5t37.5 39.5 t46.5 16q18 0 30 -16.5t20.5 -41t17.5 -54t20.5 -54t28.5 -40.5t43 -16q36 0 56 9.5t25 9.5q9 0 17.5 -10.5t8.5 -18.5q0 -4 -9.5 -9.5t-26.5 -10.5t-38.5 -8.5t-44.5 -3.5q-34 0 -57.5 14t-39 35.5t-25.5 46t-17 46t-13 36t-14 14.5q-10 0 -21.5 -14.5t-26 -36t-30 -47 t-34 -47t-38.5 -36t-42 -14.5q-28 0 -47.5 15t-33 37.5t-23 48t-17 48t-14.5 37.5t-18 15q-9 0 -20.5 -13.5t-25.5 -34.5t-29.5 -46t-32 -46t-32.5 -34.5t-32 -13.5q-35 0 -54.5 27.5t-32.5 63t-23 68.5t-23 46q-27 24 -36.5 44t-9.5 34z" />
<glyph unicode="n" horiz-adv-x="692" d="M70 232q0 17 10 27t22 10q10 0 18.5 -7.5t8.5 -24.5q0 -9 4 -34.5t11.5 -52t17.5 -47.5t21 -21t22 13t23.5 31.5t27 40.5t35 41t46.5 32t62 13q33 0 55.5 -21.5t40.5 -51.5t34.5 -63.5t36.5 -57.5q13 -14 29 -24.5t39 -10.5q8 0 18 2.5t18.5 6t15 6t8.5 2.5q9 0 17 -11 t8 -19q0 -4 -9.5 -8.5t-23 -9t-29.5 -7.5t-30 -3q-37 0 -63 14t-45.5 36t-34 47.5t-28.5 48t-28.5 36.5t-34.5 14q-30 0 -53 -12.5t-42 -32t-35 -42t-31 -42t-28.5 -32.5t-27.5 -13q-15 0 -33.5 25t-35 60.5t-27 74.5t-10.5 67z" />
<glyph unicode="o" horiz-adv-x="495" d="M97 216q0 12 3.5 25.5t11 25.5t18 19t26.5 7q7 0 11 -7.5t4 -19.5q0 -9 -2.5 -23.5t-2.5 -32.5q0 -26 2.5 -57t11.5 -57.5t27 -45t49 -18.5q17 0 32 10.5t26 26.5t17 35.5t6 37.5q0 17 -2 30t-5 23q-68 13 -101.5 44t-33.5 64q0 24 16.5 40t50.5 16q18 0 35 -9t32 -24.5 t26.5 -36t19.5 -42.5q1 -6 15 -6q27 0 54.5 5t51 11t40.5 11t21 5q5 0 6.5 -5.5t1.5 -10.5q0 -19 -24.5 -31.5t-55.5 -19.5t-60.5 -10t-39.5 -5q2 -11 2 -19.5v-23.5q0 -30 -7.5 -60t-23 -54.5t-38.5 -40.5t-54 -16q-45 0 -76.5 26t-51.5 62.5t-29.5 78t-9.5 72.5zM249 300 q0 -12 19 -30t49 -23q-8 22 -23 41.5t-30 19.5q-5 0 -10 -1.5t-5 -6.5z" />
<glyph unicode="p" horiz-adv-x="901" d="M41 299v4q0 9 11 16t20 7q3 0 9.5 -1t14 -4.5t15 -7.5t10.5 -10q49 -94 75.5 -179t39.5 -150t16.5 -103.5t7.5 -38.5q3 0 6.5 34.5t10.5 85.5t18 110.5t31 110.5t50.5 85.5t74.5 34.5q49 0 83.5 -20t62 -51t50 -65.5t46.5 -65.5t53 -51t69 -20t62.5 10.5t25.5 10.5 q6 0 15.5 -9.5t9.5 -19.5q0 -5 -10 -10.5t-25 -10t-35 -8t-41 -3.5q-49 0 -84.5 17t-63 43t-49.5 56.5t-44.5 56t-48.5 43t-60 17.5q-33 0 -57.5 -29t-42.5 -80.5t-30 -121t-20 -151t-11 -170.5t-3 -179q0 -33 0.5 -78.5t0.5 -92.5t0.5 -90.5t0.5 -72.5q0 -33 -4 -46 t-12 -13q-18 0 -32.5 27.5t-14.5 72.5q0 167 -6.5 297t-16.5 230.5t-24 174.5t-29 129.5t-32 95t-33.5 70.5t-32 57.5t-27.5 55.5z" />
<glyph unicode="q" horiz-adv-x="737" d="M68 90q0 40 13.5 84.5t39.5 81.5t63.5 61.5t83.5 24.5q27 0 47.5 -8.5t36 -22.5t25.5 -32t18 -37q6 -5 10 -8t6.5 -4.5t4.5 -4t6 -8.5q13 -22 24.5 -64.5t19 -93t11.5 -100t4 -84.5q0 -75 -4 -155.5t-9.5 -157t-11 -143t-7.5 -111.5q37 164 91.5 322t125.5 311 q10 22 21.5 46t22.5 45t18.5 35t10.5 13l1 1q1 0 1.5 0.5t1.5 0.5q5 0 11.5 -2.5t11.5 -7.5q6 -6 6 -23q0 -2 -5 -13t-13.5 -28.5t-18.5 -39.5t-20 -46q-33 -74 -65.5 -154t-61.5 -163.5t-53.5 -169.5t-40.5 -170q-8 -39 -14.5 -80t-12.5 -75t-11.5 -55.5t-13.5 -21.5 q-15 0 -24.5 13.5t-16 35t-8.5 48t-2 53.5q0 65 2.5 116.5t6.5 97.5t8.5 92t8.5 101t6.5 123t2.5 158q0 28 -3 68.5t-8.5 77t-14.5 63t-19 26.5q-2 0 -5.5 -1.5t-6.5 -4.5q-13 -29 -34.5 -51.5t-46.5 -39.5t-52 -26.5t-52 -9.5q-58 0 -87 34t-29 83zM125 111q0 -31 9 -50.5 t36 -19.5t57 18t55.5 45t42.5 59.5t17 61.5q0 24 -20.5 39t-51.5 15q-19 0 -41 -7t-42 -21.5t-36 -39t-22 -59.5q-2 -8 -3 -18.5t-1 -22.5z" />
<glyph unicode="r" horiz-adv-x="430" d="M63 267q0 7 1.5 18t5.5 21t12 17.5t22 7.5t22.5 -8t8.5 -13q0 -14 -6.5 -29t-6.5 -25q0 -14 12 -18t24 -4q13 0 28.5 4t31 8.5t30.5 8t26 3.5q17 0 31 -17t14 -48q0 -27 -10 -56t-10 -58q0 -24 14 -39.5t55 -15.5q22 0 41 8.5t22 7.5q10 0 18 -9t8 -18q0 -5 -10 -10.5 t-23.5 -10t-30 -7.5t-29.5 -3q-59 0 -88.5 25.5t-29.5 62.5q0 25 5.5 49.5t5.5 47.5q0 12 -6.5 17.5t-17.5 5.5q-24 0 -48 -6t-47 -6q-15 0 -29 3.5t-23.5 14t-16 28t-6.5 43.5z" />
<glyph unicode="s" horiz-adv-x="454" d="M104 20q0 8 3.5 15.5t11.5 7.5q6 0 25 -7t49 -7q20 0 41.5 3t39 9.5t28.5 17.5t11 25q0 15 -14.5 26t-37 19.5t-48.5 17t-48.5 20t-37 28.5t-14.5 43q0 19 16.5 36.5t43 30.5t57.5 21t59 8q20 0 28.5 -4.5t8.5 -14.5q0 -12 -11.5 -19.5t-28 -12.5t-36 -9.5t-35.5 -9 t-27.5 -11.5t-11.5 -17q0 -17 14.5 -27t36 -17.5t47 -13.5t47 -17t36 -29t14.5 -48q0 -26 -17.5 -45.5t-44 -33t-59 -21t-62.5 -7.5q-36 0 -60 10t-24 33z" />
<glyph unicode="t" horiz-adv-x="465" d="M20 570q0 19 11.5 29.5t26.5 18t27.5 13.5t15.5 17q5 19 7 39.5t5 36t8.5 26t19.5 10.5q10 0 15 -29.5t13 -66.5q3 0 13.5 -0.5t21.5 -2t21.5 -2t13.5 -0.5q39 0 67.5 0.5t56.5 2.5t60 3t77 3q71 4 139 8q58 4 123 9t115 11q30 3 66 8.5t74 10.5t74 10t65 8.5t47.5 6 t21.5 2.5q13 0 24.5 -5.5t11.5 -17.5q0 -6 -1.5 -12t-7.5 -8q-38 -9 -84.5 -17t-94 -15.5t-92 -13.5t-77.5 -12q-15 -3 -46.5 -8.5t-72.5 -13.5t-88 -16t-95 -15.5t-93.5 -14.5t-83.5 -10q-39 -4 -71.5 -8t-62.5 -7.5t-58.5 -6.5t-58.5 -5q-6 -2 -9 -11t-5 -20.5t-2.5 -26 t-0.5 -26.5q0 -100 11.5 -179.5t38.5 -135.5t70.5 -85.5t104.5 -29.5q40 0 60 9.5t25 9.5q9 0 17.5 -10.5t8.5 -18.5q0 -4 -9.5 -9.5t-26 -10.5t-38.5 -8.5t-49 -3.5q-73 0 -119 27.5t-74.5 73t-42 104t-20 119.5t-11 119t-12.5 105q-1 7 -12 12t-24 9t-24 9t-11 12z" />
<glyph unicode="u" horiz-adv-x="683" d="M84 228q0 30 9.5 45.5t23.5 15.5q26 0 33.5 -11t7.5 -26q0 -11 -1.5 -22.5t-1.5 -20.5q0 -32 1.5 -63t11 -56t30 -41t57.5 -16q25 0 50.5 14t48 38t40 55.5t25.5 66.5q5 17 15 27t21 10q14 0 20.5 -5t9.5 -11.5t3.5 -15t3.5 -17.5q6 -33 16 -63.5t26 -54.5t38.5 -38 t52.5 -14q20 0 37.5 8t21.5 8q9 0 17.5 -10.5t8.5 -18.5q0 -5 -11 -10.5t-27 -10t-33.5 -7.5t-29.5 -3q-34 0 -59.5 12t-44 32.5t-31 47t-22.5 56.5q-14 -29 -36 -54.5t-48.5 -45.5t-57 -31.5t-63.5 -11.5q-40 0 -68 13.5t-46 36t-28 50.5t-14.5 54.5t-5.5 50t-1 37.5z" />
<glyph unicode="v" horiz-adv-x="591" d="M65 313q0 11 19 12q8 0 21 -3.5t26.5 -12.5t26.5 -25.5t22 -42.5q16 -47 27.5 -84t22 -63t22 -40t29.5 -14q16 0 32 14t28 39.5t19.5 62.5t7.5 82q-17 16 -29.5 42.5t-12.5 50.5q0 22 9 36.5t29 14.5q10 0 21 -7t20.5 -21t15.5 -34t6 -45q0 -8 9 -13.5t22.5 -9t29 -5 t27.5 -1.5q23 0 46.5 4t43.5 9t33 9.5t16 4.5q5 0 6.5 -5.5t1.5 -10.5q0 -14 -14.5 -25.5t-36.5 -18.5t-48 -10.5t-49 -3.5q-17 0 -40.5 3t-48.5 11q-5 -28 -14 -68t-24.5 -76t-41.5 -62t-62 -26q-27 0 -46.5 13t-34.5 34.5t-26 47.5t-20.5 53t-17 50t-15.5 37 q-7 13 -17.5 25.5t-19.5 24.5t-15 23.5t-6 23.5z" />
<glyph unicode="w" horiz-adv-x="763" d="M67 324q0 14 4 22t18 8t23.5 -21t15 -52.5t10 -68.5t11.5 -68.5t17 -52.5t27 -21q18 0 36.5 11.5t37.5 26t40.5 26t45.5 11.5q32 0 55 -14.5t41.5 -33t36.5 -33.5t39 -15q4 0 5 0.5t1 5.5q0 29 -7.5 59.5t-7.5 69.5q0 12 1.5 27.5t5.5 29t12 22.5t19 9q16 0 25.5 -3.5 t14.5 -3.5q33 -8 58 -11t51 -3q24 0 44.5 3.5t37 7.5t27 7.5t13.5 3.5q5 0 7 -5.5t2 -10.5q0 -17 -15.5 -28t-37 -16.5t-43 -7.5t-33.5 -2q-26 0 -51.5 4t-49.5 4q-28 0 -32.5 -13t-4.5 -39q0 -30 9.5 -58.5t9.5 -60.5q0 -31 -11.5 -48t-42.5 -17q-12 0 -33.5 17.5t-46.5 39 t-52 39t-51 17.5q-23 0 -42 -13.5t-38 -29.5t-38.5 -29.5t-41.5 -13.5q-27 0 -45.5 24.5t-31.5 61t-20.5 78t-11.5 74.5q-4 36 -8.5 53t-4.5 31z" />
<glyph unicode="x" horiz-adv-x="557" d="M76 -61q0 10 13.5 30.5t34 46.5t45 53.5t44.5 51.5l6 6q-34 38 -56 67.5t-35 52.5t-18.5 41t-5.5 34q0 24 16 24h1q15 0 20.5 -8.5t14.5 -24.5q11 -22 20.5 -37t21 -30.5t26 -33.5t34.5 -46q37 36 69 68t60 56t52 38t44 14q12 0 13 -10q0 -13 -9 -21t-32 -26t-62.5 -54 t-99.5 -106l4 -6q15 -18 34 -36t41.5 -32t48 -22.5t54.5 -8.5q36 0 57.5 10.5t26.5 10.5q9 0 17 -9t8 -18q0 -8 -15 -15t-35 -11.5t-40.5 -7.5t-30.5 -3q-36 0 -67 10t-57.5 24.5t-47 31.5t-33.5 33l-6 8q-30 -30 -51.5 -59t-39.5 -52t-33 -37t-32 -14q-14 0 -17 5t-3 12z " />
<glyph unicode="y" horiz-adv-x="661" d="M70 280q0 14 7 23.5t19 9.5t23 -17t22.5 -43t22.5 -56.5t24 -56t27.5 -43t32.5 -17.5q19 0 33.5 12.5t26 32.5t21.5 42.5t19.5 42.5t21 33t25.5 13q9 0 28.5 -24t44 -70t51 -113t51.5 -153q4 8 9.5 19.5t11.5 26.5q10 22 21.5 46t21.5 45t17.5 34.5t11.5 13.5q1 0 2 0.5 t3 0.5q5 0 11 -2t10 -7q6 -6 6 -24q0 -2 -5 -13t-13 -28t-18.5 -39t-20.5 -46q-13 -30 -25 -58.5t-18 -49.5q7 -30 14 -73t12.5 -94.5t8.5 -109.5t3 -117q0 -79 -6.5 -154t-23 -134t-44 -94.5t-67.5 -35.5q-30 0 -50.5 15t-33.5 41.5t-18.5 61.5t-5.5 75q0 37 6 94.5t22 135 t44.5 175.5t73.5 215q-20 85 -41 148t-40.5 104.5t-35 61.5t-22.5 20q-4 0 -14.5 -20t-28 -45t-42.5 -45t-58 -20q-40 0 -66 25.5t-44 59t-30 68.5t-22 54q-7 12 -11.5 26.5t-4.5 26.5zM440 -838q0 -16 2.5 -33.5t9 -32t17 -23.5t26.5 -9q23 0 38.5 32t25 84t14 117.5 t4.5 133.5q0 46 -2.5 90t-5.5 83t-7 70.5t-9 53.5q-37 -108 -59 -199t-34.5 -163.5t-16 -123.5t-3.5 -80z" />
<glyph unicode="z" horiz-adv-x="471" d="M57 295q0 18 20.5 33.5t45.5 15.5q29 0 69.5 -2t79 -11t66 -27.5t27.5 -51.5q0 -31 -21.5 -61.5t-47.5 -58.5t-47.5 -50.5t-21.5 -36.5q0 -11 10 -18.5t23 -11t27.5 -4.5t23.5 -1q52 0 82.5 6.5t38.5 8.5q8 3 15.5 6l12.5 5q6 3 11 5q11 0 19 -11t8 -20q0 -2 -7 -6.5 t-22 -9.5q-33 -11 -72 -20t-94 -9q-24 0 -48.5 3.5t-44.5 12.5t-32 23.5t-12 38.5t21.5 50t47 51t47 47t21.5 38q0 12 -18.5 18.5t-45.5 9.5t-59 5t-59 5t-45.5 9.5t-18.5 18.5z" />
<glyph unicode="&#xad;" d="M161 183q0 13 6.5 24t30.5 16q42 8 79 13.5t77 8t86.5 3.5t108.5 1q28 0 52.5 -1t43 -3t29.5 -4.5t11 -6.5q0 -19 -20.5 -26.5t-53.5 -7.5q-60 -4 -120.5 -9t-114 -9.5t-97 -9t-70.5 -8.5q-12 -4 -23 -4q-14 0 -19.5 6.5t-5.5 16.5z" />
<glyph unicode="&#x2000;" horiz-adv-x="682" />
<glyph unicode="&#x2001;" horiz-adv-x="1365" />
<glyph unicode="&#x2002;" horiz-adv-x="682" />
<glyph unicode="&#x2003;" horiz-adv-x="1365" />
<glyph unicode="&#x2004;" horiz-adv-x="455" />
<glyph unicode="&#x2005;" horiz-adv-x="341" />
<glyph unicode="&#x2006;" horiz-adv-x="227" />
<glyph unicode="&#x2007;" horiz-adv-x="227" />
<glyph unicode="&#x2008;" horiz-adv-x="170" />
<glyph unicode="&#x2009;" horiz-adv-x="273" />
<glyph unicode="&#x200a;" horiz-adv-x="75" />
<glyph unicode="&#x2010;" d="M161 183q0 13 6.5 24t30.5 16q42 8 79 13.5t77 8t86.5 3.5t108.5 1q28 0 52.5 -1t43 -3t29.5 -4.5t11 -6.5q0 -19 -20.5 -26.5t-53.5 -7.5q-60 -4 -120.5 -9t-114 -9.5t-97 -9t-70.5 -8.5q-12 -4 -23 -4q-14 0 -19.5 6.5t-5.5 16.5z" />
<glyph unicode="&#x2011;" d="M161 183q0 13 6.5 24t30.5 16q42 8 79 13.5t77 8t86.5 3.5t108.5 1q28 0 52.5 -1t43 -3t29.5 -4.5t11 -6.5q0 -19 -20.5 -26.5t-53.5 -7.5q-60 -4 -120.5 -9t-114 -9.5t-97 -9t-70.5 -8.5q-12 -4 -23 -4q-14 0 -19.5 6.5t-5.5 16.5z" />
<glyph unicode="&#x2012;" d="M161 183q0 13 6.5 24t30.5 16q42 8 79 13.5t77 8t86.5 3.5t108.5 1q28 0 52.5 -1t43 -3t29.5 -4.5t11 -6.5q0 -19 -20.5 -26.5t-53.5 -7.5q-60 -4 -120.5 -9t-114 -9.5t-97 -9t-70.5 -8.5q-12 -4 -23 -4q-14 0 -19.5 6.5t-5.5 16.5z" />
<glyph unicode="&#x2013;" horiz-adv-x="973" d="M123 208q0 7 16.5 11.5t43 7t61 3t69.5 0.5q87 0 173 -1.5t173 -1.5q22 0 49 1q23 0 53 0.5t63 0.5q13 0 20 -5.5t7 -10.5q0 -12 -14 -23t-34 -11h-140t-94.5 -0.5t-76 -0.5h-84.5q-50 -1 -99 -1.5t-88 -0.5q-30 0 -49 1t-30 4t-15 9.5t-4 17.5z" />
<glyph unicode="&#x2014;" horiz-adv-x="2343" d="M161 183q0 13 25.5 24t119.5 16q164 8 308.5 13.5t301 8t338 3.5t423.5 1q110 0 205.5 -1t168 -3t115.5 -4.5t43 -6.5q0 -19 -80 -26.5t-209 -7.5q-235 -4 -471.5 -9t-445.5 -9.5t-379 -9t-275 -8.5q-47 -4 -90 -4q-55 0 -76.5 6.5t-21.5 16.5z" />
<glyph unicode="&#x2019;" horiz-adv-x="416" d="M136 945q0 29 29 29q17 0 40.5 -12t44.5 -34.5t35.5 -53.5t14.5 -70q0 -22 -10 -51t-25.5 -56t-34.5 -45.5t-36 -18.5q-10 0 -11 17q0 8 9 21.5t14 24.5q20 39 23 70.5t3 43.5q0 31 -14.5 48.5t-33 30.5t-33.5 25.5t-15 30.5z" />
<glyph unicode="&#x2026;" horiz-adv-x="1677" d="M212 26q0 14 6.5 24t16.5 16.5t20.5 9t19.5 2.5q11 0 18.5 -8.5t12 -19t6.5 -22t2 -17.5q0 -12 -6 -23.5t-28 -11.5q-4 0 -15.5 3t-23 8.5t-20.5 15t-9 23.5zM763 38q0 14 6.5 24.5t16.5 16.5t20.5 8.5t19.5 2.5q13 0 22 -11t14 -25.5t7.5 -27.5t2.5 -15q0 -12 -6 -23.5 t-28 -11.5q-5 0 -15.5 2t-21.5 8t-21.5 18t-16.5 34zM1318 26q0 14 6.5 24t16.5 16.5t20.5 9t19.5 2.5q11 0 18.5 -8.5t12 -19t6.5 -22t2 -17.5q0 -12 -6 -23.5t-29 -11.5q-4 0 -15 3t-22.5 8.5t-20.5 15t-9 23.5z" />
<glyph unicode="&#x202f;" horiz-adv-x="273" />
<glyph unicode="&#x205f;" horiz-adv-x="341" />
<glyph unicode="&#x20ac;" horiz-adv-x="793" d="M61 271q0 12 3 28.5t17 16.5q22 8 55.5 9.5t72.5 3.5h6q1 73 21.5 133t52.5 103t72.5 66.5t83.5 23.5q30 0 65 -13.5t65 -33t50.5 -41t20.5 -38.5q0 -8 -8 -12.5t-18 -4.5q-11 0 -21 7q-13 13 -30 28t-36 27.5t-39 20t-38 7.5q-44 0 -77.5 -23.5t-55.5 -61.5t-34.5 -86.5 t-15.5 -97.5q44 2 97 4t105 2h49t41 -1t28.5 -2t10.5 -2q0 -24 -11.5 -30.5t-26.5 -6.5q-6 0 -13 0.5t-14 0.5l-264 -17q3 -38 18 -73q51 0 105 3.5t103 3.5h56q13 0 25.5 0.5t24.5 0.5q22 0 36 -0.5t14 -2.5q0 -17 -5.5 -30t-18.5 -13h-60q-37 -4 -78.5 -5.5t-86.5 -3.5 l-91 -5q19 -37 47.5 -69t62.5 -56t72.5 -37.5t78.5 -13.5q30 0 58.5 5.5t57.5 10.5h5q8 0 12 -6.5t4 -15.5q0 -8 -4 -18q0 -1 -30.5 -12t-82.5 -11q-56 0 -108.5 16t-97 45t-79.5 69t-59 89q-59 -4 -101 -9.5t-53 -5.5q-13 0 -19 6.5t-6 14.5q0 24 24 34t82 10l51 3 q-10 32 -15 73q-3 0 -6 -1t-7 -1q-49 -5 -85 -9.5t-46 -4.5q-5 0 -8.5 1t-3.5 8z" />
<glyph unicode="&#xe000;" horiz-adv-x="348" d="M0 0v348h348v-348h-348z" />
</font>
</defs>
</svg>
